<?xml version="1.0" standalone="no"?>
<!DOCTYPE svg PUBLIC "-//W3C//DTD SVG 20010904//EN"
 "http://www.w3.org/TR/2001/REC-SVG-20010904/DTD/svg10.dtd">
<svg version="1.0" xmlns="http://www.w3.org/2000/svg"
 width="951.000000pt" height="951.000000pt" viewBox="0 0 951.000000 951.000000"
 preserveAspectRatio="xMidYMid meet">
<metadata>
Created by potrace 1.16, written by Peter Selinger 2001-2019
</metadata>
<g transform="translate(0.000000,951.000000) scale(0.100000,-0.100000)"
fill="#000000" stroke="none">
<path d="M2815 8390 c-9 -17 -14 -39 -11 -48 7 -20 15 -84 20 -154 2 -26 7
-52 11 -58 7 -11 9 -32 22 -165 3 -27 9 -54 14 -59 5 -6 9 -25 9 -44 0 -18 4
-41 10 -51 5 -10 11 -33 14 -52 8 -56 23 -131 39 -189 8 -30 18 -81 22 -114 4
-32 16 -81 26 -110 11 -28 19 -65 19 -81 0 -17 4 -35 8 -40 5 -6 17 -37 27
-70 24 -79 35 -116 45 -140 4 -11 15 -45 25 -75 10 -30 21 -59 25 -65 3 -5 13
-30 20 -55 8 -25 22 -58 32 -75 10 -16 18 -41 18 -55 1 -14 9 -43 20 -65 11
-22 19 -45 20 -51 0 -6 9 -19 20 -29 15 -13 19 -27 16 -48 -3 -18 1 -34 13
-46 26 -26 61 -86 61 -106 0 -9 8 -29 19 -43 10 -15 28 -49 40 -77 12 -27 26
-57 31 -65 6 -8 16 -26 22 -40 7 -14 18 -31 25 -38 7 -7 10 -19 7 -27 -3 -7 4
-18 15 -25 16 -8 91 -144 91 -165 0 -10 -85 -58 -119 -67 -19 -6 -48 -23 -64
-39 -16 -16 -43 -37 -61 -46 -17 -8 -48 -31 -69 -49 -20 -19 -44 -34 -52 -34
-8 0 -15 -5 -15 -10 0 -6 -8 -13 -17 -17 -10 -3 -40 -25 -68 -48 -27 -22 -67
-51 -87 -64 -21 -12 -52 -43 -70 -67 -37 -51 -48 -47 -56 21 -5 44 -7 48 -49
66 -25 10 -49 16 -54 13 -5 -3 -91 -4 -192 -3 -100 1 -195 2 -212 1 -16 0
-239 0 -495 0 -256 1 -508 1 -560 0 -228 -3 -383 -4 -500 -3 -69 0 -204 1
-300 2 -96 0 -193 1 -215 2 -22 0 -58 -1 -80 -3 -33 -2 -95 1 -215 12 -8 1
-25 0 -37 0 l-23 -2 0 -1141 0 -1140 23 7 c32 10 87 6 103 -7 10 -9 25 -9 57
-1 56 14 144 24 187 21 59 -4 70 -3 204 10 76 7 157 9 195 5 75 -9 100 -7 119
9 9 7 135 11 370 13 196 2 393 5 437 8 88 4 455 10 495 7 14 -1 66 3 115 9 50
5 164 12 255 15 91 2 176 7 190 10 14 3 52 2 85 -3 47 -8 63 -7 75 4 14 12 34
1 156 -81 78 -51 154 -97 170 -101 16 -4 38 -14 49 -24 11 -9 40 -22 65 -29
25 -7 65 -24 89 -37 24 -13 51 -24 61 -24 9 0 25 -9 34 -19 17 -19 17 -20 -3
-31 -12 -6 -21 -17 -21 -25 0 -8 -11 -35 -25 -61 -14 -26 -25 -55 -25 -65 0
-10 -5 -21 -10 -24 -7 -4 -7 -12 0 -25 7 -13 7 -21 0 -25 -5 -3 -10 -14 -10
-23 0 -9 -13 -30 -29 -47 -16 -16 -36 -52 -45 -80 -31 -102 -66 -189 -78 -196
-6 -4 -11 -25 -11 -46 1 -38 -21 -160 -37 -198 -4 -11 -16 -48 -26 -83 -11
-34 -22 -62 -25 -62 -3 0 -9 -28 -13 -61 -3 -34 -11 -68 -17 -75 -6 -8 -12
-35 -14 -61 -5 -104 -19 -193 -31 -204 -9 -7 -11 -21 -8 -35 8 -32 -15 -183
-33 -210 -7 -11 -11 -23 -8 -25 2 -3 7 -24 9 -47 4 -31 2 -43 -11 -50 -13 -8
-15 -18 -8 -58 11 -62 8 -283 -4 -298 -4 -6 -8 -51 -7 -100 2 -66 -1 -89 -11
-93 -15 -6 -8 -68 10 -90 14 -18 43 -16 64 5 16 16 40 18 273 16 140 -1 289
-5 330 -8 101 -9 412 -9 590 -1 155 7 459 7 470 0 21 -13 281 -34 435 -35 99
-1 196 -3 215 -6 19 -2 166 -6 325 -8 160 -2 340 -7 400 -11 61 -4 216 -8 345
-10 391 -5 744 -17 760 -25 15 -8 49 4 61 22 11 16 -1 229 -16 290 -3 13 -8
61 -11 108 -7 135 -8 144 -20 164 -6 10 -9 27 -7 36 3 10 0 21 -6 24 -6 4 -11
18 -11 32 0 14 -5 35 -12 47 -14 25 -25 90 -33 195 -3 39 -10 83 -15 97 -5 14
-7 25 -4 25 4 0 2 6 -4 13 -6 7 -14 37 -18 67 -4 29 -13 65 -20 79 -8 14 -14
33 -14 42 0 9 -9 51 -21 95 -12 43 -27 105 -34 137 -7 33 -18 64 -24 70 -6 6
-11 22 -11 35 0 27 -58 231 -70 247 -4 6 -15 35 -24 65 -9 30 -21 63 -27 72
-5 10 -9 26 -9 36 0 10 -9 35 -20 57 -11 22 -20 47 -20 57 0 10 -4 18 -8 18
-5 0 -16 17 -25 38 -24 57 -87 221 -87 228 0 13 -57 122 -80 154 -14 19 -41
67 -60 105 -18 39 -41 81 -52 94 -10 13 -18 30 -18 38 0 12 -31 67 -78 139 -7
10 -19 33 -27 49 -9 17 -21 38 -27 47 -10 14 -6 28 20 80 80 160 89 275 25
335 -19 18 -41 33 -48 33 -30 0 -24 22 14 58 26 24 43 50 47 72 4 19 18 49 31
67 27 35 26 82 -1 112 -9 10 -16 24 -16 31 0 7 -23 39 -50 71 -27 32 -50 65
-50 74 0 9 -13 24 -30 33 -16 9 -30 20 -30 24 0 3 25 24 56 45 59 40 64 47
116 158 27 58 32 80 31 129 -3 76 -18 108 -65 137 -21 13 -38 27 -38 31 0 5
-11 8 -26 8 -14 0 -42 11 -62 25 -20 14 -49 25 -64 25 -15 0 -30 5 -33 10 -3
6 -16 10 -28 11 -21 0 -21 1 -2 9 11 5 31 9 43 9 13 1 36 13 51 29 15 15 46
40 68 55 22 16 50 49 62 73 12 24 26 46 32 49 5 4 9 16 9 29 0 12 5 27 11 33
6 6 13 51 16 100 7 120 -15 164 -113 231 -14 9 -15 14 -6 18 6 3 12 20 12 38
0 20 12 50 30 77 16 24 30 51 30 61 0 9 14 29 30 45 17 15 30 33 30 40 0 6 7
18 15 27 9 8 28 43 44 76 16 34 36 69 44 78 8 9 17 29 21 43 6 26 72 178 100
229 8 14 17 41 21 60 4 19 14 39 22 45 16 12 83 198 83 231 0 12 13 49 30 82
17 34 30 65 30 70 0 5 11 34 23 63 13 30 29 83 36 119 7 36 24 93 38 128 14
34 23 65 20 69 -4 3 -1 15 5 26 6 12 15 51 20 87 5 36 10 74 12 85 1 11 8 30
14 42 12 22 30 92 36 143 2 14 8 52 14 85 5 33 10 77 11 99 1 21 8 70 16 108
8 38 15 91 15 118 0 28 7 61 17 79 14 23 15 33 6 42 -20 20 -104 29 -253 28
-497 -5 -755 1 -880 22 -75 12 -149 19 -185 16 -104 -8 -595 -22 -700 -20 -55
1 -131 2 -170 1 -114 -2 -223 0 -335 6 -139 7 -563 19 -720 21 -113 1 -408 19
-725 45 -66 5 -182 12 -257 15 l-137 6 -16 -31z m393 -60 c20 -5 91 -10 157
-10 66 0 163 -5 215 -11 52 -6 124 -12 160 -14 144 -7 494 -17 645 -20 88 -1
246 -6 350 -10 105 -5 199 -8 210 -7 51 3 787 14 928 13 90 0 175 -5 200 -12
25 -7 128 -14 252 -15 116 -2 253 -4 305 -5 52 -2 157 -2 232 0 75 1 159 -1
186 -5 l48 -6 2 -63 c1 -35 -2 -75 -8 -89 -10 -27 -26 -145 -35 -261 -7 -89
-23 -163 -43 -196 -18 -32 -58 -40 -232 -46 -219 -7 -1017 0 -1038 10 -9 4
-71 1 -192 -8 -52 -4 -165 -6 -250 -5 -172 4 -233 4 -270 0 -14 -1 -63 -2
-110 -2 -47 1 -94 1 -105 1 -28 -1 -103 7 -145 15 -19 4 -120 9 -225 12 -104
3 -197 5 -205 6 -8 0 -46 0 -85 -2 -38 -1 -81 0 -95 3 -14 4 -69 8 -122 11
-54 2 -101 7 -106 10 -4 3 -46 6 -91 7 -46 1 -154 8 -240 15 -86 7 -223 18
-306 24 -202 14 -226 23 -216 83 1 4 -4 17 -9 28 -6 11 -14 43 -17 72 -8 77
-10 91 -16 107 -2 8 -10 53 -17 100 -7 47 -23 126 -36 177 -13 50 -24 93 -24
96 0 16 290 13 348 -3z m48 -725 c61 -1 117 -6 125 -10 8 -5 41 -10 74 -12 33
-1 103 -7 155 -14 52 -6 142 -12 200 -13 58 -1 155 -7 215 -14 61 -6 205 -14
320 -17 116 -2 251 -7 300 -11 50 -3 140 -6 200 -6 61 0 162 0 225 0 132 -1
396 0 685 2 110 1 301 -1 425 -5 124 -3 281 -6 350 -5 212 2 433 0 436 -2 1
-2 -2 -28 -7 -58 -5 -30 -12 -70 -14 -88 -3 -18 -12 -46 -19 -61 -8 -15 -15
-37 -15 -47 0 -30 -42 -177 -56 -194 -7 -8 -15 -33 -19 -55 -3 -22 -19 -67
-36 -99 -16 -32 -30 -66 -30 -75 0 -27 -24 -71 -38 -71 -7 0 -22 5 -33 10 -22
12 -208 -3 -239 -20 -10 -6 -41 -12 -67 -15 -201 -20 -386 -26 -460 -15 -32 4
-127 11 -211 14 -84 3 -183 10 -220 15 -37 6 -96 11 -132 12 -102 2 -274 28
-405 61 -66 16 -172 36 -235 43 -63 8 -146 21 -185 30 -38 9 -90 16 -114 16
-24 0 -69 9 -100 19 -56 18 -98 26 -181 35 -25 3 -85 14 -135 26 -285 64 -283
64 -460 64 -190 -1 -224 -9 -311 -80 -39 -32 -44 -34 -52 -18 -49 94 -151 445
-170 586 -8 65 -8 69 12 78 12 5 41 6 66 3 25 -4 95 -7 156 -9z m1013 -1716
c20 -7 68 -22 106 -34 39 -13 89 -28 112 -34 48 -13 132 -80 150 -120 15 -33
16 -79 2 -119 -10 -29 -96 -104 -136 -119 -10 -3 -34 -19 -53 -33 -19 -15 -65
-42 -102 -60 -37 -18 -86 -51 -110 -74 -24 -22 -55 -50 -69 -61 -14 -11 -30
-28 -35 -37 -8 -14 -93 -112 -166 -189 -10 -11 -18 -23 -18 -29 0 -5 -4 -10
-9 -10 -14 0 -161 -142 -156 -150 3 -4 17 -10 32 -13 22 -4 38 3 70 29 23 19
45 34 50 34 5 0 26 19 47 43 115 128 146 155 146 126 0 -7 20 -31 44 -55 24
-23 48 -48 53 -56 10 -16 127 -98 140 -98 11 0 114 -108 131 -137 20 -38 15
-43 -50 -43 -56 -1 -87 -6 -218 -40 -19 -5 -48 -10 -64 -10 -34 0 -108 -31
-274 -114 -156 -77 -164 -82 -179 -102 -18 -24 -16 -32 8 -44 17 -10 33 -4
104 38 46 28 93 53 105 57 12 4 55 22 97 41 150 69 432 116 464 78 10 -12 9
-22 -4 -50 -10 -19 -17 -40 -17 -46 0 -20 -78 -175 -104 -205 -14 -17 -26 -34
-26 -37 0 -11 -93 -126 -102 -126 -4 0 -8 -9 -8 -20 0 -11 -36 -57 -80 -104
-44 -47 -80 -89 -80 -94 0 -4 -16 -25 -35 -47 -20 -21 -33 -40 -30 -43 10 -10
-40 -79 -103 -139 -36 -35 -61 -67 -57 -73 4 -6 -5 -28 -18 -48 -14 -20 -39
-60 -54 -89 -61 -112 -94 -161 -112 -166 -11 -3 -20 -17 -24 -40 -7 -42 -44
-97 -66 -97 -17 0 -72 17 -118 37 -17 7 -34 13 -38 13 -9 0 -83 33 -148 66
-26 13 -53 24 -61 24 -7 0 -29 12 -49 28 -19 15 -59 43 -87 62 -105 72 -118
86 -126 143 -5 40 -7 648 -2 1372 0 90 0 345 0 374 -1 26 6 39 31 60 18 14 43
38 57 52 14 15 47 43 73 62 26 20 59 50 73 67 21 24 130 103 282 202 52 34
319 165 368 181 27 9 69 16 93 16 24 0 45 1 47 3 10 10 270 7 303 -3z m1671
-89 c231 -15 308 -32 363 -77 16 -13 34 -23 41 -23 16 0 57 -46 72 -80 12 -27
8 -148 -6 -165 -4 -5 -11 -24 -14 -40 -9 -41 -93 -145 -117 -145 -11 0 -27 -4
-37 -9 -9 -5 -50 -17 -89 -26 -60 -14 -122 -17 -351 -17 -287 -1 -297 0 -472
34 -189 36 -266 99 -277 228 -3 32 -2 67 2 77 10 22 12 29 14 47 1 16 57 77
91 98 65 42 203 73 400 89 74 6 137 13 139 15 6 6 97 4 241 -6z m-3070 -442
c5 -88 5 -1532 0 -1723 -1 -49 1 -107 5 -127 4 -20 2 -44 -3 -55 -12 -21 -24
-23 -187 -27 -66 -2 -165 -8 -220 -14 -55 -6 -147 -11 -205 -12 l-105 0 2 248
c1 223 4 412 17 1007 2 105 9 214 16 243 8 36 10 107 6 220 -3 92 -3 204 1
249 l6 82 76 3 c42 2 191 2 331 1 l255 -3 5 -92z m2550 -209 c80 -7 206 -13
280 -14 74 -1 171 -5 215 -9 96 -8 300 -52 337 -72 14 -8 33 -14 41 -14 9 0
29 -11 45 -25 17 -14 34 -25 39 -25 30 0 57 -71 55 -142 -2 -39 -32 -100 -66
-133 -28 -28 -93 -65 -113 -65 -31 0 -93 -23 -93 -35 0 -14 -42 -35 -69 -35
-10 0 -47 -9 -82 -21 -74 -24 -143 -25 -409 -9 -131 9 -204 19 -290 41 -214
53 -361 117 -385 166 -6 11 -17 28 -25 37 -15 20 -15 107 2 174 21 86 197 191
323 191 28 1 115 -4 195 -10z m823 -632 c18 -8 50 -36 72 -63 21 -27 42 -51
46 -54 14 -11 49 -90 49 -112 0 -36 -61 -147 -102 -184 -25 -22 -48 -34 -67
-34 -17 0 -40 -4 -53 -9 -13 -5 -68 -12 -123 -16 -55 -4 -108 -11 -118 -16
-14 -8 -109 -11 -267 -8 -8 0 -44 -4 -78 -11 -62 -10 -84 -9 -127 10 -30 13
-157 50 -171 50 -15 0 -115 84 -128 108 -15 27 -27 100 -30 183 -2 67 1 80 20
103 13 14 42 33 65 42 35 15 48 15 89 5 27 -7 79 -14 117 -17 37 -2 149 -11
248 -19 198 -16 265 -14 340 10 28 9 72 18 99 20 27 2 54 9 60 15 13 13 20 13
59 -3z m-1644 -54 c21 -17 59 -142 66 -218 1 -16 8 -68 14 -115 6 -47 13 -128
15 -180 6 -99 22 -224 33 -250 3 -8 5 -27 4 -42 -1 -15 1 -33 5 -40 5 -7 7
-27 5 -45 -2 -22 5 -42 18 -59 12 -15 21 -32 21 -38 0 -18 33 -33 59 -26 25 6
70 77 71 111 0 9 7 22 15 29 11 9 15 31 14 79 -1 37 4 84 10 106 6 22 22 92
35 156 25 117 75 249 95 249 6 0 11 -6 11 -14 0 -8 3 -16 8 -18 4 -1 20 -22
36 -46 16 -24 39 -48 50 -54 12 -6 26 -17 31 -24 14 -17 113 -48 229 -73 55
-11 101 -23 103 -25 2 -2 -9 -30 -26 -61 -39 -73 -47 -146 -25 -240 8 -38 20
-78 25 -87 5 -10 9 -24 9 -32 0 -8 16 -23 35 -35 19 -11 35 -27 35 -35 0 -7
12 -22 28 -32 23 -15 49 -18 162 -18 127 -1 138 1 193 27 32 15 65 27 73 27 9
0 42 13 73 29 31 16 73 34 93 41 20 6 48 20 61 30 24 19 25 19 49 1 13 -11 33
-36 43 -57 11 -21 36 -63 55 -94 38 -60 69 -120 70 -134 0 -5 7 -14 16 -20 8
-7 17 -28 18 -49 2 -25 19 -58 55 -108 29 -39 58 -83 64 -98 6 -14 16 -33 22
-41 7 -8 22 -46 34 -85 12 -38 26 -75 31 -81 5 -6 19 -40 30 -76 11 -36 27
-71 35 -78 8 -7 17 -28 21 -49 4 -20 12 -43 19 -51 7 -8 18 -33 24 -55 7 -22
16 -49 21 -60 5 -11 18 -54 30 -95 12 -41 26 -79 30 -85 4 -5 10 -21 12 -35 2
-18 -1 -24 -12 -23 -8 1 -49 7 -90 13 -41 5 -102 15 -135 21 -61 11 -128 14
-465 19 -138 2 -203 -2 -255 -13 -38 -8 -108 -18 -155 -22 -47 -4 -115 -15
-151 -26 -36 -10 -78 -19 -94 -19 -15 0 -41 -6 -58 -14 -18 -8 -59 -22 -92
-31 -33 -9 -107 -32 -165 -50 -248 -81 -232 -78 -415 -79 -151 -1 -184 2 -300
27 -71 15 -146 33 -165 39 -19 6 -53 15 -75 19 -22 4 -76 20 -120 37 -44 16
-112 32 -151 35 -39 4 -90 14 -114 22 -24 8 -66 15 -94 15 -28 -1 -100 -1
-161 0 -60 0 -123 -3 -140 -6 -85 -15 -172 -38 -185 -49 -15 -13 -95 -55 -104
-55 -10 0 8 86 20 93 8 4 14 20 14 34 0 14 9 58 20 97 11 39 28 98 36 131 9
33 20 69 24 80 27 69 44 105 66 147 28 53 120 276 136 328 5 19 16 42 22 50
21 25 51 82 70 133 10 26 27 54 39 62 11 8 18 17 14 21 -3 3 17 35 45 71 27
36 61 88 75 117 13 28 38 69 54 91 16 22 36 54 44 70 20 39 55 87 113 154 26
30 52 65 57 77 10 23 73 99 158 190 26 28 47 55 47 61 0 5 14 22 30 38 17 16
30 32 30 36 0 3 21 37 46 75 42 62 71 118 123 236 18 43 21 44 50 21z m1719
-487 c74 -38 80 -48 72 -138 -4 -51 -13 -84 -23 -96 -10 -10 -17 -22 -17 -25
0 -4 -11 -25 -24 -46 -18 -28 -38 -44 -73 -57 -26 -10 -61 -28 -76 -41 -16
-13 -41 -25 -55 -28 -15 -3 -44 -15 -64 -25 -20 -11 -52 -20 -70 -20 -18 0
-47 -9 -64 -19 -25 -15 -52 -19 -135 -20 l-104 -1 -42 41 c-24 22 -43 44 -43
47 0 4 -9 37 -19 73 -22 82 -18 147 15 211 19 37 30 48 48 48 22 0 64 35 58
49 -4 9 85 18 281 30 93 5 174 14 180 19 12 10 45 18 85 21 12 0 44 -10 70
-23z m-2728 -2701 c13 -8 659 -17 1050 -14 365 2 497 0 835 -17 151 -7 267 -9
405 -6 41 1 102 -1 135 -4 33 -3 294 -7 580 -9 286 -2 531 -5 545 -5 33 -2 50
-17 50 -46 0 -12 5 -26 10 -29 7 -4 7 -12 0 -25 -7 -13 -6 -28 1 -47 6 -15 13
-41 14 -58 2 -16 7 -61 11 -100 4 -38 8 -90 8 -115 1 -25 5 -50 9 -57 4 -6 5
-31 3 -55 -3 -23 -5 -47 -5 -51 -1 -7 -198 -4 -426 7 -88 4 -487 12 -1077 20
-163 2 -309 7 -325 10 -15 3 -151 8 -301 11 -150 3 -283 10 -295 14 -29 11
-132 21 -232 22 -133 1 -646 -10 -710 -16 -36 -3 -96 1 -150 10 -49 9 -99 16
-110 17 -11 0 -101 -1 -200 -2 -156 -1 -283 4 -291 13 -5 5 -5 236 0 327 2 52
5 119 5 148 1 45 4 54 24 61 25 10 421 6 437 -4z"/>
<path d="M2470 5229 c-36 -14 -79 -58 -102 -103 -26 -51 -20 -127 14 -164 39
-41 104 -73 162 -79 62 -6 92 9 141 72 23 31 27 46 26 96 -1 83 -28 132 -91
164 -51 26 -106 31 -150 14z"/>
</g>
</svg>
