<?xml version="1.0" encoding="UTF-8" standalone="no"?>
<svg
   xmlns:dc="http://purl.org/dc/elements/1.1/"
   xmlns:cc="http://creativecommons.org/ns#"
   xmlns:rdf="http://www.w3.org/1999/02/22-rdf-syntax-ns#"
   xmlns:svg="http://www.w3.org/2000/svg"
   xmlns="http://www.w3.org/2000/svg"
   xmlns:sodipodi="http://sodipodi.sourceforge.net/DTD/sodipodi-0.dtd"
   xmlns:inkscape="http://www.inkscape.org/namespaces/inkscape"
   version="1.0"
   width="951.000000pt"
   height="951.000000pt"
   viewBox="0 0 951.000000 951.000000"
   preserveAspectRatio="xMidYMid meet"
   id="svg10"
   sodipodi:docname="logo.svg"
   inkscape:version="1.0.1 (3bc2e813f5, 2020-09-07)">
  <defs
     id="defs14" />
  <sodipodi:namedview
     pagecolor="#ffffff"
     bordercolor="#666666"
     borderopacity="1"
     objecttolerance="10"
     gridtolerance="10"
     guidetolerance="10"
     inkscape:pageopacity="0"
     inkscape:pageshadow="2"
     inkscape:window-width="1920"
     inkscape:window-height="1001"
     id="namedview12"
     showgrid="false"
     inkscape:zoom="0.65457413"
     inkscape:cx="119.9253"
     inkscape:cy="630.94458"
     inkscape:window-x="-9"
     inkscape:window-y="41"
     inkscape:window-maximized="1"
     inkscape:current-layer="svg10" />
  <metadata
     id="metadata2">
Created by potrace 1.16, written by Peter Selinger 2001-2019
<rdf:RDF>
  <cc:Work
     rdf:about="">
    <dc:format>image/svg+xml</dc:format>
    <dc:type
       rdf:resource="http://purl.org/dc/dcmitype/StillImage" />
  </cc:Work>
</rdf:RDF>
</metadata>
  <g
     transform="translate(0.000000,951.000000) scale(0.100000,-0.100000)"
     fill="#000000"
     stroke="none"
     id="g8">
    <path
       d="M2815 8390 c-9 -17 -14 -39 -11 -48 7 -20 15 -84 20 -154 2 -26 7 -52 11 -58 7 -11 9 -32 22 -165 3 -27 9 -54 14 -59 5 -6 9 -25 9 -44 0 -18 4 -41 10 -51 5 -10 11 -33 14 -52 8 -56 23 -131 39 -189 8 -30 18 -81 22 -114 4 -32 16 -81 26 -110 11 -28 19 -65 19 -81 0 -17 4 -35 8 -40 5 -6 17 -37 27 -70 24 -79 35 -116 45 -140 4 -11 15 -45 25 -75 10 -30 21 -59 25 -65 3 -5 13 -30 20 -55 8 -25 22 -58 32 -75 10 -16 18 -41 18 -55 1 -14 9 -43 20 -65 11 -22 19 -45 20 -51 0 -6 9 -19 20 -29 15 -13 19 -27 16 -48 -3 -18 1 -34 13 -46 26 -26 61 -86 61 -106 0 -9 8 -29 19 -43 10 -15 28 -49 40 -77 12 -27 26 -57 31 -65 6 -8 16 -26 22 -40 7 -14 18 -31 25 -38 7 -7 10 -19 7 -27 -3 -7 4 -18 15 -25 16 -8 91 -144 91 -165 0 -10 -85 -58 -119 -67 -19 -6 -48 -23 -64 -39 -16 -16 -43 -37 -61 -46 -17 -8 -48 -31 -69 -49 -20 -19 -44 -34 -52 -34 -8 0 -15 -5 -15 -10 0 -6 -8 -13 -17 -17 -10 -3 -40 -25 -68 -48 -27 -22 -67 -51 -87 -64 -21 -12 -52 -43 -70 -67 -37 -51 -48 -47 -56 21 -5 44 -7 48 -49 66 -25 10 -49 16 -54 13 -5 -3 -91 -4 -192 -3 -100 1 -195 2 -212 1 -16 0 -239 0 -495 0 -256 1 -508 1 -560 0 -228 -3 -383 -4 -500 -3 -69 0 -204 1 -300 2 -96 0 -193 1 -215 2 -22 0 -58 -1 -80 -3 -33 -2 -95 1 -215 12 -8 1 -25 0 -37 0 l-23 -2 0 -1141 0 -1140 23 7 c32 10 87 6 103 -7 10 -9 25 -9 57 -1 56 14 144 24 187 21 59 -4 70 -3 204 10 76 7 157 9 195 5 75 -9 100 -7 119 9 9 7 135 11 370 13 196 2 393 5 437 8 88 4 455 10 495 7 14 -1 66 3 115 9 50 5 164 12 255 15 91 2 176 7 190 10 14 3 52 2 85 -3 47 -8 63 -7 75 4 14 12 34 1 156 -81 78 -51 154 -97 170 -101 16 -4 38 -14 49 -24 11 -9 40 -22 65 -29 25 -7 65 -24 89 -37 24 -13 51 -24 61 -24 9 0 25 -9 34 -19 17 -19 17 -20 -3 -31 -12 -6 -21 -17 -21 -25 0 -8 -11 -35 -25 -61 -14 -26 -25 -55 -25 -65 0 -10 -5 -21 -10 -24 -7 -4 -7 -12 0 -25 7 -13 7 -21 0 -25 -5 -3 -10 -14 -10 -23 0 -9 -13 -30 -29 -47 -16 -16 -36 -52 -45 -80 -31 -102 -66 -189 -78 -196 -6 -4 -11 -25 -11 -46 1 -38 -21 -160 -37 -198 -4 -11 -16 -48 -26 -83 -11 -34 -22 -62 -25 -62 -3 0 -9 -28 -13 -61 -3 -34 -11 -68 -17 -75 -6 -8 -12 -35 -14 -61 -5 -104 -19 -193 -31 -204 -9 -7 -11 -21 -8 -35 8 -32 -15 -183 -33 -210 -7 -11 -11 -23 -8 -25 2 -3 7 -24 9 -47 4 -31 2 -43 -11 -50 -13 -8 -15 -18 -8 -58 11 -62 8 -283 -4 -298 -4 -6 -8 -51 -7 -100 2 -66 -1 -89 -11 -93 -15 -6 -8 -68 10 -90 14 -18 43 -16 64 5 16 16 40 18 273 16 140 -1 289 -5 330 -8 101 -9 412 -9 590 -1 155 7 459 7 470 0 21 -13 281 -34 435 -35 99 -1 196 -3 215 -6 19 -2 166 -6 325 -8 160 -2 340 -7 400 -11 61 -4 216 -8 345 -10 391 -5 744 -17 760 -25 15 -8 49 4 61 22 11 16 -1 229 -16 290 -3 13 -8 61 -11 108 -7 135 -8 144 -20 164 -6 10 -9 27 -7 36 3 10 0 21 -6 24 -6 4 -11 18 -11 32 0 14 -5 35 -12 47 -14 25 -25 90 -33 195 -3 39 -10 83 -15 97 -5 14 -7 25 -4 25 4 0 2 6 -4 13 -6 7 -14 37 -18 67 -4 29 -13 65 -20 79 -8 14 -14 33 -14 42 0 9 -9 51 -21 95 -12 43 -27 105 -34 137 -7 33 -18 64 -24 70 -6 6 -11 22 -11 35 0 27 -58 231 -70 247 -4 6 -15 35 -24 65 -9 30 -21 63 -27 72 -5 10 -9 26 -9 36 0 10 -9 35 -20 57 -11 22 -20 47 -20 57 0 10 -4 18 -8 18 -5 0 -16 17 -25 38 -24 57 -87 221 -87 228 0 13 -57 122 -80 154 -14 19 -41 67 -60 105 -18 39 -41 81 -52 94 -10 13 -18 30 -18 38 0 12 -31 67 -78 139 -7 10 -19 33 -27 49 -9 17 -21 38 -27 47 -10 14 -6 28 20 80 80 160 89 275 25 335 -19 18 -41 33 -48 33 -30 0 -24 22 14 58 26 24 43 50 47 72 4 19 18 49 31 67 27 35 26 82 -1 112 -9 10 -16 24 -16 31 0 7 -23 39 -50 71 -27 32 -50 65 -50 74 0 9 -13 24 -30 33 -16 9 -30 20 -30 24 0 3 25 24 56 45 59 40 64 47 116 158 27 58 32 80 31 129 -3 76 -18 108 -65 137 -21 13 -38 27 -38 31 0 5 -11 8 -26 8 -14 0 -42 11 -62 25 -20 14 -49 25 -64 25 -15 0 -30 5 -33 10 -3 6 -16 10 -28 11 -21 0 -21 1 -2 9 11 5 31 9 43 9 13 1 36 13 51 29 15 15 46 40 68 55 22 16 50 49 62 73 12 24 26 46 32 49 5 4 9 16 9 29 0 12 5 27 11 33 6 6 13 51 16 100 7 120 -15 164 -113 231 -14 9 -15 14 -6 18 6 3 12 20 12 38 0 20 12 50 30 77 16 24 30 51 30 61 0 9 14 29 30 45 17 15 30 33 30 40 0 6 7 18 15 27 9 8 28 43 44 76 16 34 36 69 44 78 8 9 17 29 21 43 6 26 72 178 100 229 8 14 17 41 21 60 4 19 14 39 22 45 16 12 83 198 83 231 0 12 13 49 30 82 17 34 30 65 30 70 0 5 11 34 23 63 13 30 29 83 36 119 7 36 24 93 38 128 14 34 23 65 20 69 -4 3 -1 15 5 26 6 12 15 51 20 87 5 36 10 74 12 85 1 11 8 30 14 42 12 22 30 92 36 143 2 14 8 52 14 85 5 33 10 77 11 99 1 21 8 70 16 108 8 38 15 91 15 118 0 28 7 61 17 79 14 23 15 33 6 42 -20 20 -104 29 -253 28 -497 -5 -755 1 -880 22 -75 12 -149 19 -185 16 -104 -8 -595 -22 -700 -20 -55 1 -131 2 -170 1 -114 -2 -223 0 -335 6 -139 7 -563 19 -720 21 -113 1 -408 19 -725 45 -66 5 -182 12 -257 15 l-137 6 -16 -31z m393 -60 c20 -5 91 -10 157 -10 66 0 163 -5 215 -11 52 -6 124 -12 160 -14 144 -7 494 -17 645 -20 88 -1 246 -6 350 -10 105 -5 199 -8 210 -7 51 3 787 14 928 13 90 0 175 -5 200 -12 25 -7 128 -14 252 -15 116 -2 253 -4 305 -5 52 -2 157 -2 232 0 75 1 159 -1 186 -5 l48 -6 2 -63 c1 -35 -2 -75 -8 -89 -10 -27 -26 -145 -35 -261 -7 -89 -23 -163 -43 -196 -18 -32 -58 -40 -232 -46 -219 -7 -1017 0 -1038 10 -9 4 -71 1 -192 -8 -52 -4 -165 -6 -250 -5 -172 4 -233 4 -270 0 -14 -1 -63 -2 -110 -2 -47 1 -94 1 -105 1 -28 -1 -103 7 -145 15 -19 4 -120 9 -225 12 -104 3 -197 5 -205 6 -8 0 -46 0 -85 -2 -38 -1 -81 0 -95 3 -14 4 -69 8 -122 11 -54 2 -101 7 -106 10 -4 3 -46 6 -91 7 -46 1 -154 8 -240 15 -86 7 -223 18 -306 24 -202 14 -226 23 -216 83 1 4 -4 17 -9 28 -6 11 -14 43 -17 72 -8 77 -10 91 -16 107 -2 8 -10 53 -17 100 -7 47 -23 126 -36 177 -13 50 -24 93 -24 96 0 16 290 13 348 -3z m48 -725 c61 -1 117 -6 125 -10 8 -5 41 -10 74 -12 33 -1 103 -7 155 -14 52 -6 142 -12 200 -13 58 -1 155 -7 215 -14 61 -6 205 -14 320 -17 116 -2 251 -7 300 -11 50 -3 140 -6 200 -6 61 0 162 0 225 0 132 -1 396 0 685 2 110 1 301 -1 425 -5 124 -3 281 -6 350 -5 212 2 433 0 436 -2 1 -2 -2 -28 -7 -58 -5 -30 -12 -70 -14 -88 -3 -18 -12 -46 -19 -61 -8 -15 -15 -37 -15 -47 0 -30 -42 -177 -56 -194 -7 -8 -15 -33 -19 -55 -3 -22 -19 -67 -36 -99 -16 -32 -30 -66 -30 -75 0 -27 -24 -71 -38 -71 -7 0 -22 5 -33 10 -22 12 -208 -3 -239 -20 -10 -6 -41 -12 -67 -15 -201 -20 -386 -26 -460 -15 -32 4 -127 11 -211 14 -84 3 -183 10 -220 15 -37 6 -96 11 -132 12 -102 2 -274 28 -405 61 -66 16 -172 36 -235 43 -63 8 -146 21 -185 30 -38 9 -90 16 -114 16 -24 0 -69 9 -100 19 -56 18 -98 26 -181 35 -25 3 -85 14 -135 26 -285 64 -283 64 -460 64 -190 -1 -224 -9 -311 -80 -39 -32 -44 -34 -52 -18 -49 94 -151 445 -170 586 -8 65 -8 69 12 78 12 5 41 6 66 3 25 -4 95 -7 156 -9z m1013 -1716 c20 -7 68 -22 106 -34 39 -13 89 -28 112 -34 48 -13 132 -80 150 -120 15 -33 16 -79 2 -119 -10 -29 -96 -104 -136 -119 -10 -3 -34 -19 -53 -33 -19 -15 -65 -42 -102 -60 -37 -18 -86 -51 -110 -74 -24 -22 -55 -50 -69 -61 -14 -11 -30 -28 -35 -37 -8 -14 -93 -112 -166 -189 -10 -11 -18 -23 -18 -29 0 -5 -4 -10 -9 -10 -14 0 -161 -142 -156 -150 3 -4 17 -10 32 -13 22 -4 38 3 70 29 23 19 45 34 50 34 5 0 26 19 47 43 115 128 146 155 146 126 0 -7 20 -31 44 -55 24 -23 48 -48 53 -56 10 -16 127 -98 140 -98 11 0 114 -108 131 -137 20 -38 15 -43 -50 -43 -56 -1 -87 -6 -218 -40 -19 -5 -48 -10 -64 -10 -34 0 -108 -31 -274 -114 -156 -77 -164 -82 -179 -102 -18 -24 -16 -32 8 -44 17 -10 33 -4 104 38 46 28 93 53 105 57 12 4 55 22 97 41 150 69 432 116 464 78 10 -12 9 -22 -4 -50 -10 -19 -17 -40 -17 -46 0 -20 -78 -175 -104 -205 -14 -17 -26 -34 -26 -37 0 -11 -93 -126 -102 -126 -4 0 -8 -9 -8 -20 0 -11 -36 -57 -80 -104 -44 -47 -80 -89 -80 -94 0 -4 -16 -25 -35 -47 -20 -21 -33 -40 -30 -43 10 -10 -40 -79 -103 -139 -36 -35 -61 -67 -57 -73 4 -6 -5 -28 -18 -48 -14 -20 -39 -60 -54 -89 -61 -112 -94 -161 -112 -166 -11 -3 -20 -17 -24 -40 -7 -42 -44 -97 -66 -97 -17 0 -72 17 -118 37 -17 7 -34 13 -38 13 -9 0 -83 33 -148 66 -26 13 -53 24 -61 24 -7 0 -29 12 -49 28 -19 15 -59 43 -87 62 -105 72 -118 86 -126 143 -5 40 -7 648 -2 1372 0 90 0 345 0 374 -1 26 6 39 31 60 18 14 43 38 57 52 14 15 47 43 73 62 26 20 59 50 73 67 21 24 130 103 282 202 52 34 319 165 368 181 27 9 69 16 93 16 24 0 45 1 47 3 10 10 270 7 303 -3z m1671 -89 c231 -15 308 -32 363 -77 16 -13 34 -23 41 -23 16 0 57 -46 72 -80 12 -27 8 -148 -6 -165 -4 -5 -11 -24 -14 -40 -9 -41 -93 -145 -117 -145 -11 0 -27 -4 -37 -9 -9 -5 -50 -17 -89 -26 -60 -14 -122 -17 -351 -17 -287 -1 -297 0 -472 34 -189 36 -266 99 -277 228 -3 32 -2 67 2 77 10 22 12 29 14 47 1 16 57 77 91 98 65 42 203 73 400 89 74 6 137 13 139 15 6 6 97 4 241 -6z m-3070 -442 c5 -88 5 -1532 0 -1723 -1 -49 1 -107 5 -127 4 -20 2 -44 -3 -55 -12 -21 -24 -23 -187 -27 -66 -2 -165 -8 -220 -14 -55 -6 -147 -11 -205 -12 l-105 0 2 248 c1 223 4 412 17 1007 2 105 9 214 16 243 8 36 10 107 6 220 -3 92 -3 204 1 249 l6 82 76 3 c42 2 191 2 331 1 l255 -3 5 -92z m2550 -209 c80 -7 206 -13 280 -14 74 -1 171 -5 215 -9 96 -8 300 -52 337 -72 14 -8 33 -14 41 -14 9 0 29 -11 45 -25 17 -14 34 -25 39 -25 30 0 57 -71 55 -142 -2 -39 -32 -100 -66 -133 -28 -28 -93 -65 -113 -65 -31 0 -93 -23 -93 -35 0 -14 -42 -35 -69 -35 -10 0 -47 -9 -82 -21 -74 -24 -143 -25 -409 -9 -131 9 -204 19 -290 41 -214 53 -361 117 -385 166 -6 11 -17 28 -25 37 -15 20 -15 107 2 174 21 86 197 191 323 191 28 1 115 -4 195 -10z m823 -632 c18 -8 50 -36 72 -63 21 -27 42 -51 46 -54 14 -11 49 -90 49 -112 0 -36 -61 -147 -102 -184 -25 -22 -48 -34 -67 -34 -17 0 -40 -4 -53 -9 -13 -5 -68 -12 -123 -16 -55 -4 -108 -11 -118 -16 -14 -8 -109 -11 -267 -8 -8 0 -44 -4 -78 -11 -62 -10 -84 -9 -127 10 -30 13 -157 50 -171 50 -15 0 -115 84 -128 108 -15 27 -27 100 -30 183 -2 67 1 80 20 103 13 14 42 33 65 42 35 15 48 15 89 5 27 -7 79 -14 117 -17 37 -2 149 -11 248 -19 198 -16 265 -14 340 10 28 9 72 18 99 20 27 2 54 9 60 15 13 13 20 13 59 -3z m-1644 -54 c21 -17 59 -142 66 -218 1 -16 8 -68 14 -115 6 -47 13 -128 15 -180 6 -99 22 -224 33 -250 3 -8 5 -27 4 -42 -1 -15 1 -33 5 -40 5 -7 7 -27 5 -45 -2 -22 5 -42 18 -59 12 -15 21 -32 21 -38 0 -18 33 -33 59 -26 25 6 70 77 71 111 0 9 7 22 15 29 11 9 15 31 14 79 -1 37 4 84 10 106 6 22 22 92 35 156 25 117 75 249 95 249 6 0 11 -6 11 -14 0 -8 3 -16 8 -18 4 -1 20 -22 36 -46 16 -24 39 -48 50 -54 12 -6 26 -17 31 -24 14 -17 113 -48 229 -73 55 -11 101 -23 103 -25 2 -2 -9 -30 -26 -61 -39 -73 -47 -146 -25 -240 8 -38 20 -78 25 -87 5 -10 9 -24 9 -32 0 -8 16 -23 35 -35 19 -11 35 -27 35 -35 0 -7 12 -22 28 -32 23 -15 49 -18 162 -18 127 -1 138 1 193 27 32 15 65 27 73 27 9 0 42 13 73 29 31 16 73 34 93 41 20 6 48 20 61 30 24 19 25 19 49 1 13 -11 33 -36 43 -57 11 -21 36 -63 55 -94 38 -60 69 -120 70 -134 0 -5 7 -14 16 -20 8 -7 17 -28 18 -49 2 -25 19 -58 55 -108 29 -39 58 -83 64 -98 6 -14 16 -33 22 -41 7 -8 22 -46 34 -85 12 -38 26 -75 31 -81 5 -6 19 -40 30 -76 11 -36 27 -71 35 -78 8 -7 17 -28 21 -49 4 -20 12 -43 19 -51 7 -8 18 -33 24 -55 7 -22 16 -49 21 -60 5 -11 18 -54 30 -95 12 -41 26 -79 30 -85 4 -5 10 -21 12 -35 2 -18 -1 -24 -12 -23 -8 1 -49 7 -90 13 -41 5 -102 15 -135 21 -61 11 -128 14 -465 19 -138 2 -203 -2 -255 -13 -38 -8 -108 -18 -155 -22 -47 -4 -115 -15 -151 -26 -36 -10 -78 -19 -94 -19 -15 0 -41 -6 -58 -14 -18 -8 -59 -22 -92 -31 -33 -9 -107 -32 -165 -50 -248 -81 -232 -78 -415 -79 -151 -1 -184 2 -300 27 -71 15 -146 33 -165 39 -19 6 -53 15 -75 19 -22 4 -76 20 -120 37 -44 16 -112 32 -151 35 -39 4 -90 14 -114 22 -24 8 -66 15 -94 15 -28 -1 -100 -1 -161 0 -60 0 -123 -3 -140 -6 -85 -15 -172 -38 -185 -49 -15 -13 -95 -55 -104 -55 -10 0 8 86 20 93 8 4 14 20 14 34 0 14 9 58 20 97 11 39 28 98 36 131 9 33 20 69 24 80 27 69 44 105 66 147 28 53 120 276 136 328 5 19 16 42 22 50 21 25 51 82 70 133 10 26 27 54 39 62 11 8 18 17 14 21 -3 3 17 35 45 71 27 36 61 88 75 117 13 28 38 69 54 91 16 22 36 54 44 70 20 39 55 87 113 154 26 30 52 65 57 77 10 23 73 99 158 190 26 28 47 55 47 61 0 5 14 22 30 38 17 16 30 32 30 36 0 3 21 37 46 75 42 62 71 118 123 236 18 43 21 44 50 21z m1719 -487 c74 -38 80 -48 72 -138 -4 -51 -13 -84 -23 -96 -10 -10 -17 -22 -17 -25 0 -4 -11 -25 -24 -46 -18 -28 -38 -44 -73 -57 -26 -10 -61 -28 -76 -41 -16 -13 -41 -25 -55 -28 -15 -3 -44 -15 -64 -25 -20 -11 -52 -20 -70 -20 -18 0 -47 -9 -64 -19 -25 -15 -52 -19 -135 -20 l-104 -1 -42 41 c-24 22 -43 44 -43 47 0 4 -9 37 -19 73 -22 82 -18 147 15 211 19 37 30 48 48 48 22 0 64 35 58 49 -4 9 85 18 281 30 93 5 174 14 180 19 12 10 45 18 85 21 12 0 44 -10 70 -23z m-2728 -2701 c13 -8 659 -17 1050 -14 365 2 497 0 835 -17 151 -7 267 -9 405 -6 41 1 102 -1 135 -4 33 -3 294 -7 580 -9 286 -2 531 -5 545 -5 33 -2 50 -17 50 -46 0 -12 5 -26 10 -29 7 -4 7 -12 0 -25 -7 -13 -6 -28 1 -47 6 -15 13 -41 14 -58 2 -16 7 -61 11 -100 4 -38 8 -90 8 -115 1 -25 5 -50 9 -57 4 -6 5 -31 3 -55 -3 -23 -5 -47 -5 -51 -1 -7 -198 -4 -426 7 -88 4 -487 12 -1077 20 -163 2 -309 7 -325 10 -15 3 -151 8 -301 11 -150 3 -283 10 -295 14 -29 11 -132 21 -232 22 -133 1 -646 -10 -710 -16 -36 -3 -96 1 -150 10 -49 9 -99 16 -110 17 -11 0 -101 -1 -200 -2 -156 -1 -283 4 -291 13 -5 5 -5 236 0 327 2 52 5 119 5 148 1 45 4 54 24 61 25 10 421 6 437 -4z"
       id="path4" />
    <path
       d="M2470 5229 c-36 -14 -79 -58 -102 -103 -26 -51 -20 -127 14 -164 39 -41 104 -73 162 -79 62 -6 92 9 141 72 23 31 27 46 26 96 -1 83 -28 132 -91 164 -51 26 -106 31 -150 14z"
       id="path6" />
  </g>
  <path
     style="fill:#ff0000;stroke-width:1.52771"
     d="m 943.36145,1191.5158 c -12.60362,-0.6461 -54.88302,-1.9381 -93.95422,-2.8712 -123.38435,-2.9467 -175.93766,-4.7061 -193.25542,-6.4699 -23.34367,-2.3774 -238.65074,-3.2502 -243.1849,-0.9857 -1.83386,0.9158 -4.44834,1.2377 -5.80997,0.7152 -2.12352,-0.8149 -2.34392,-2.854 -1.54942,-14.3344 0.50944,-7.3613 1.65825,-19.5715 2.55291,-27.1337 0.89522,-7.567 1.16532,-20.0402 0.60067,-27.7399 -0.68439,-9.3323 -0.48299,-14.3262 0.60486,-14.9985 0.89698,-0.5544 1.55475,-4.5707 1.46172,-8.9251 -0.093,-4.3545 0.91286,-13.7607 2.23536,-20.9027 4.46449,-24.1104 5.66683,-31.2827 7.04276,-42.0121 1.88295,-14.6829 5.03702,-27.96598 10.6563,-44.87816 2.61764,-7.87817 5.40182,-19.39135 6.18708,-25.58483 0.78526,-6.19348 2.41452,-12.80962 3.62057,-14.70253 1.20605,-1.89293 4.09361,-8.94144 6.41678,-15.66336 2.32319,-6.72193 6.22709,-15.06647 8.67535,-18.54342 2.44825,-3.47695 4.66847,-8.65761 4.9338,-11.5126 0.59399,-6.39101 7.48794,-23.68042 10.98163,-27.5409 3.38989,-3.74579 1.44062,-5.59895 -11.73635,-11.15771 -21.46925,-9.0569 -35.98486,-16.39324 -48.23638,-24.3792 -20.34497,-13.2615 -17.19309,-12.59308 -53.35639,-11.31546 -17.64506,0.6234 -40.6753,1.84303 -51.17831,2.71033 -10.50301,0.86728 -52.78241,1.95179 -93.95422,2.41001 -41.1718,0.45822 -82.07626,1.499 -90.89879,2.31284 -17.44799,1.60952 -85.375724,4.85368 -108.079527,5.16177 L 0.01203469,833.36627 0.00580255,682.88675 -4.2974506e-4,532.40723 190.58171,532.82399 c 129.31993,0.28279 191.88269,0.93555 194.62803,2.03065 3.24099,1.29281 4.24739,2.95748 5.05868,8.36757 1.23121,8.21038 3.62593,8.61567 9.49868,1.60754 3.69217,-4.40601 16.32177,-14.12835 42.37524,-32.62074 3.28948,-2.33483 8.90651,-6.4332 12.48226,-9.10749 3.57574,-2.67429 10.85265,-7.01514 16.17091,-9.64633 5.31825,-2.63121 10.1641,-5.26877 10.76855,-5.86127 1.31109,-1.28511 -5.24702,-15.90452 -10.04608,-22.39488 -1.86836,-2.52682 -8.83129,-15.59374 -15.47315,-29.03759 -6.64187,-13.44386 -13.31716,-26.0829 -14.83398,-28.08675 -1.5168,-2.00386 -2.75784,-5.38708 -2.75784,-7.51827 0,-2.13118 -0.97216,-4.96021 -2.16035,-6.28674 -1.18819,-1.32653 -3.63818,-6.88041 -5.44441,-12.34198 -1.80623,-5.46157 -5.05487,-14.39867 -7.21923,-19.86024 -7.42843,-18.74512 -21.31968,-61.88121 -24.59868,-76.38554 -1.80455,-7.98229 -5.05148,-23.10663 -7.21539,-33.60964 -4.03311,-19.57552 -5.68914,-27.21902 -8.3575,-38.5747 -0.83911,-3.57102 -2.21201,-11.64879 -3.05091,-17.9506 -0.83888,-6.30181 -2.48751,-18.30254 -3.66364,-26.66829 -3.01159,-21.4216 -2.56565,-22.22017 12.40363,-22.21187 6.53266,0.004 30.43925,1.38865 53.12576,3.07783 43.26894,3.22171 76.82593,4.69566 176.4506,7.75037 46.57115,1.42797 73.42062,1.44383 117.63374,0.0695 41.35837,-1.28562 59.62566,-1.32127 65.69156,-0.1282 4.70274,0.92496 39.68147,2.13486 79.44097,2.74782 75.49672,1.16391 79.73434,1.60677 76.32535,7.97653 -0.89471,1.67177 -2.21599,8.002 -2.93619,14.06718 -3.90906,32.92016 -6.61615,50.47936 -9.47248,61.44205 -1.75139,6.72193 -4.08461,17.03398 -5.18488,22.91566 -4.31836,23.0842 -13.88756,54.82683 -24.86953,82.49639 -1.66743,4.2012 -4.19197,11.76337 -5.61007,16.80482 -1.4181,5.04144 -4.48839,13.29108 -6.82287,18.33253 -9.38168,20.26025 -18.03086,39.92877 -19.14651,43.53976 -0.97474,3.15496 -7.02823,14.65806 -16.93171,32.17435 -0.91484,1.61808 -2.75363,4.14977 -4.08621,5.62596 -3.68071,4.07745 -11.5417,19.65982 -13.40059,26.56318 -1.64192,6.09765 -1.61105,6.16917 5.28058,12.23544 8.31433,7.31857 10.76411,14.55357 9.27429,27.39004 -1.25253,10.7919 -3.42102,17.07711 -8.74401,25.34386 -5.09242,7.9087 -19.48519,19.79984 -25.58754,21.14015 -5.40204,1.18648 -7.65485,3.82581 -3.26554,3.82581 1.68048,0 3.48029,0.68747 3.99959,1.52771 0.5193,0.84024 2.45042,1.53225 4.29137,1.53778 1.84096,0.006 5.4096,1.37595 7.93032,3.04535 2.52072,1.66941 5.82652,3.03983 7.34621,3.04536 4.47178,0.0163 14.56443,9.16356 16.46516,14.92288 4.14719,12.56608 -4.51551,34.72428 -17.60138,45.02234 -9.1638,7.21153 -9.64566,8.09202 -5.61029,10.25169 4.9679,2.65875 22.77049,29.53248 22.95974,34.65867 0.17026,4.61219 -7.20137,20.26383 -12.3439,26.20886 -5.41033,6.25458 -5.40868,7.33664 0.0154,10.14157 2.39595,1.23899 5.5744,4.11181 7.06323,6.38406 4.13846,6.31609 2.54676,21.93869 -3.56614,35.00165 -2.63887,5.63912 -4.79794,11.99321 -4.79794,14.12018 0,2.12697 3.29631,9.44009 7.32513,16.25137 4.02882,6.81129 9.95326,17.54017 13.16545,23.84198 3.21216,6.3018 9.47486,17.66729 13.91709,25.25663 4.44223,7.58933 11.33561,22.36994 15.31863,32.84579 3.98302,10.47583 8.22252,20.54806 9.42112,22.3827 3.04783,4.66525 15.19235,39.32861 20.50863,58.53656 2.44185,8.82253 5.43121,19.13458 6.64304,22.91567 5.84763,18.24564 18.98481,74.19564 20.45967,87.13574 0.91332,8.0133 2.93085,18.6691 4.4834,23.6796 4.60017,14.8459 6.39083,23.2732 6.40378,30.1379 0.006,3.5589 1.03791,14.6943 2.29157,24.7453 3.19986,25.6545 3.04444,33.9146 -0.67563,35.9055 -1.62524,0.8698 -3.51578,1.4798 -4.20121,1.3556 -0.68542,-0.1242 -11.55826,-0.7544 -24.16187,-1.4005 z m 23.17729,-9.9624 c 0.51127,-1.3323 -0.24512,-13.5349 -1.68089,-27.1168 -3.7948,-35.898 -5.18986,-45.4493 -6.94762,-47.5673 -1.18417,-1.4268 -22.00245,-2.2087 -85.20732,-3.2002 -46.00214,-0.7216 -86.73387,-1.1608 -90.51496,-0.976 -3.78108,0.1848 -24.06144,-0.4039 -45.06747,-1.3083 -33.0035,-1.4209 -247.05267,-4.9783 -299.11481,-4.9711 -12.03109,0 -18.62866,0.615 -19.86024,1.8465 -1.29947,1.2994 -2.00531,12.2004 -2.38957,36.9052 -0.29994,19.2836 -0.29994,35.1154 0,35.1817 5.87672,1.2992 100.65781,3.1604 149.49715,2.9356 40.61965,-0.187 67.50151,0.2958 71.80241,1.2896 9.22305,2.131 204.75629,7.9943 304.44433,9.1291 20.76542,0.2364 24.23834,-0.062 25.03899,-2.148 z M 710.38554,994.96258 c 59.61272,-18.7032 85.03905,-22.50594 142.98289,-21.38445 26.44136,0.51177 44.14236,1.58039 53.32796,3.21947 17.36949,3.09939 22.1518,3.1416 22.1518,0.19548 0,-3.96395 -18.54314,-55.93708 -21.26524,-59.60272 -1.10773,-1.49169 -7.46939,-17.39691 -13.80344,-34.51093 -1.73836,-4.6969 -7.27725,-14.95994 -12.30864,-22.80675 -5.03139,-7.84679 -9.14798,-15.14259 -9.14798,-16.21287 0,-2.23922 -9.69577,-20.97567 -18.70344,-36.1432 -9.44717,-15.90758 -9.20658,-15.84682 -28.40102,-7.17347 -30.85808,13.94377 -35.32469,15.25445 -51.98485,15.25445 -14.54124,0 -24.65527,-1.92618 -24.65527,-4.69553 0,-0.73767 -2.30207,-3.43605 -5.1157,-5.99641 -10.85387,-9.87679 -14.2282,-36.1567 -6.66136,-51.8798 2.20699,-4.58589 3.75916,-8.59154 3.44927,-8.90143 -0.3099,-0.3099 -8.35936,-2.52189 -17.88771,-4.91553 -9.52833,-2.39365 -19.28309,-5.09978 -21.67721,-6.01362 -5.17254,-1.97437 -20.85427,-17.60513 -20.85427,-20.78648 0,-3.34304 -4.23572,-2.67154 -6.19075,0.98146 -5.77487,10.79045 -15.19139,48.90232 -15.20662,61.54638 -0.005,4.29836 -0.93022,9.57967 -2.05565,11.73628 -1.12542,2.1566 -2.48119,5.65412 -3.01282,7.77226 -1.48264,5.90733 -6.96641,11.98616 -10.81281,11.98616 -7.37342,0 -12.26977,-21.17768 -16.24777,-70.2747 -2.89251,-35.69989 -6.29289,-54.00133 -11.56673,-62.25422 -3.72448,-5.82834 -6.59287,-4.1208 -11.54835,6.8747 -9.61272,21.32929 -21.35263,38.72524 -42.63037,63.16878 -4.68206,5.37867 -10.13913,12.18556 -12.12685,15.1264 -1.9877,2.94084 -6.82677,9.24589 -10.7535,14.01123 -3.92672,4.76533 -11.45216,15.76485 -16.7232,24.44337 -5.27107,8.67852 -12.74452,20.59142 -16.6077,26.47311 -13.89444,21.15424 -24.77973,41.81618 -32.9985,62.63614 -3.64857,9.24266 -9.84116,23.65982 -13.76129,32.03815 -6.58418,14.07203 -14.15273,36.975 -17.50954,52.98501 -0.76566,3.65172 -2.50892,9.66688 -3.87391,13.36703 -3.99246,10.82249 -2.43047,11.73227 9.47169,5.51676 5.68976,-2.9713 15.50105,-6.47216 21.80286,-7.77968 22.36054,-4.63946 71.65928,-0.63092 94.71807,7.70163 8.53188,3.08311 32.94933,9.35006 51.17831,13.13546 10.85634,2.2543 18.89261,2.7595 38.19277,2.4009 l 24.44338,-0.4543 z M 481.59688,847.49759 c 1.23589,-1.89054 2.78798,-5.14722 3.44908,-7.23706 0.6611,-2.08984 3.2833,-6.27875 5.82709,-9.3087 5.13677,-6.11849 16.20599,-24.41849 21.17937,-35.01448 1.77471,-3.78108 6.97287,-10.93615 11.55147,-15.90016 4.57859,-4.964 9.10156,-10.8075 10.05105,-12.98554 2.11939,-4.86172 8.26858,-13.06471 19.57424,-26.11189 4.73256,-5.46157 9.88956,-12.09252 11.46002,-14.73544 1.57045,-2.64294 5.45293,-7.89361 8.62771,-11.66817 8.86723,-10.54241 19.83398,-29.73698 24.02713,-42.05356 4.72152,-13.86848 4.08084,-14.52416 -13.1501,-13.45801 -22.51207,1.39289 -50.14126,10.43599 -74.35312,24.33594 -9.38096,5.38558 -14.86251,6.44274 -14.86251,2.86637 0,-2.84953 6.29729,-6.68128 29.33686,-17.85072 14.14839,-6.85906 27.20823,-12.13545 32.03107,-12.9411 4.47861,-0.74814 12.61147,-2.42958 18.07304,-3.73652 5.46156,-1.30696 12.79564,-2.38644 16.29794,-2.39886 7.68033,-0.0272 11.20085,-1.2215 11.20085,-3.79965 0,-4.15002 -13.51694,-18.20203 -25.16437,-26.16047 -6.7455,-4.60906 -15.35816,-12.07715 -19.13924,-16.59574 -3.78109,-4.5186 -7.66966,-8.27159 -8.6413,-8.33997 -0.97162,-0.0684 -6.22143,4.68731 -11.66624,10.5682 -10.19413,11.01061 -23.67312,21.38939 -27.77852,21.38939 -4.69594,0 -2.09743,-4.47826 7.21979,-12.44255 5.25151,-4.48895 10.11314,-9.05267 10.80364,-10.14159 2.44149,-3.85027 23.30208,-27.01297 31.59034,-35.07654 4.66934,-4.54278 17.20428,-13.40295 28.21372,-19.94253 10.89621,-6.47233 22.75507,-14.57178 26.35301,-17.99877 6.05632,-5.76857 6.5417,-6.81678 6.5417,-14.12692 0,-6.94981 -0.67277,-8.64072 -5.61411,-14.11019 -6.96981,-7.71475 -10.51793,-9.56082 -30.85383,-16.05315 -14.90977,-4.76001 -17.80023,-5.18229 -35.33447,-5.1622 -31.04082,0.0356 -36.52136,1.21821 -61.37201,13.24367 -32.62914,15.7895 -59.48973,34.79046 -87.18447,61.67356 l -8.79773,8.5399 0.003,118.2601 c 0.002,109.55589 0.19899,118.64838 2.6735,123.53548 5.45585,10.77513 38.10628,30.22759 69.12654,41.18418 11.40073,4.02682 15.94619,3.96695 18.7005,-0.24631 z M 343.23432,813.00416 c 21.15081,-1.41393 38.88416,-2.99895 39.40744,-3.52223 1.4176,-1.4176 1.39428,1.53478 1.09352,-138.43494 l -0.27986,-130.23735 h -45.06747 c -24.78711,0 -45.16539,0.17187 -45.28508,0.38193 -0.11961,0.21006 -0.75612,18.59988 -1.41433,40.86626 -0.65822,22.26639 -1.90324,62.13964 -2.76673,88.60723 -0.8635,26.46759 -1.60198,69.95006 -1.64107,96.62771 l -0.0711,48.50482 8.78434,-0.11137 c 4.83138,-0.0613 26.08954,-1.26818 47.24034,-2.68213 z m 447.81384,-8.44889 c 2.26894,-1.14182 6.74201,-2.47982 9.94018,-2.97332 7.07642,-1.09193 36.52839,-15.61528 40.62095,-20.03099 1.62217,-1.75025 4.72779,-6.55015 6.90139,-10.66645 4.90028,-9.28005 5.61928,-25.00378 1.33907,-29.28399 -6.03286,-6.03285 -20.23279,-8.68717 -28.25137,-5.28088 -1.93007,0.81989 -16.42998,2.48488 -32.222,3.69996 -27.8357,2.14175 -28.80742,2.32955 -31.81088,6.14783 -1.70396,2.16622 -4.02952,3.93859 -5.16791,3.93859 -1.13839,0 -3.42798,1.72665 -5.08798,3.837 -8.81527,11.2068 -6.77986,35.98821 3.84998,46.87416 l 5.67738,5.81415 h 15.04292 c 9.63515,0 16.52594,-0.74632 19.16827,-2.07606 z m 5.65304,-73.67385 c 26.89966,-3.02733 39.06528,-5.25766 43.14453,-7.90976 4.4811,-2.91334 13.87843,-18.01601 15.03018,-24.15533 1.23673,-6.59235 -4.63004,-17.6846 -14.39636,-27.21905 -9.12658,-8.90986 -9.55719,-8.94939 -34.61208,-3.17672 l -18.33253,4.22383 -34.46157,-2.50954 c -18.95386,-1.38024 -38.26729,-3.27382 -42.91873,-4.20795 -7.23925,-1.45387 -9.20656,-1.31846 -13.66131,0.94023 -9.95673,5.04836 -10.55458,6.16811 -10.51471,19.69375 0.055,18.66329 1.62457,23.49668 10.17417,31.33081 5.96623,5.46694 10.24783,7.67186 22.63516,11.65651 14.8534,4.77792 15.87031,4.89555 36.66506,4.24126 11.76338,-0.3701 30.32506,-1.67872 41.24819,-2.90804 z m 5.24677,-70.06151 c 4.67645,-1.21363 10.41603,-2.6074 12.75462,-3.09728 2.3386,-0.48988 5.4106,-2.24381 6.82665,-3.89765 1.41607,-1.65384 5.00243,-3.44664 7.9697,-3.98398 26.69922,-4.835 38.90733,-35.9529 19.29719,-49.18763 -16.35506,-11.03789 -43.52321,-16.24723 -98.69011,-18.92328 -58.4001,-2.83289 -61.55888,-2.70698 -73.61386,2.93423 -14.61463,6.83901 -22.02743,14.088 -24.04989,23.51842 -2.47647,11.54733 -2.01153,16.50809 2.22465,23.73659 3.13423,5.34817 5.94143,7.58772 14.89518,11.88321 18.82156,9.02952 46.68447,15.77001 75.19694,18.19139 17.92189,1.52198 49.28108,0.87822 57.18893,-1.17402 z m 27.63813,-92.1959 c 6.39886,-2.10659 11.70497,-5.07611 14.81581,-8.29156 12.2595,-12.67175 16.8115,-37.2511 8.68692,-46.90662 -5.77751,-6.86619 -21.19554,-14.78481 -32.70811,-16.79875 -5.46156,-0.95542 -21.61711,-2.14003 -35.9012,-2.63248 -29.50868,-1.0173 -62.01874,1.86759 -82.09619,7.28506 -22.16108,5.97971 -32.38997,19.96807 -28.71701,39.27149 3.35771,17.64648 12.82359,23.72442 46.64934,29.95299 9.34767,1.72125 22.46041,2.15069 55.76145,1.82616 39.75626,-0.38743 44.40606,-0.7095 53.50899,-3.70629 z m 31.27896,-198.27676 c 5.47318,-1.55116 15.29827,-2.68223 24.38592,-2.80732 l 15.21965,-0.2095 2.85741,-7.59654 c 1.57157,-4.17809 4.93847,-13.0963 7.48198,-19.81823 2.5435,-6.72193 6.01385,-17.03397 7.71189,-22.91566 1.69803,-5.88169 4.36155,-15.07198 5.91893,-20.42289 1.55736,-5.3509 3.26944,-14.00269 3.80461,-19.22618 l 0.97301,-9.49727 -79.24416,-1.01437 c -43.58431,-0.55791 -112.24273,-1.03847 -152.5743,-1.06793 -91.83412,-0.0671 -159.26071,-2.69665 -220.75422,-8.60925 -42.53405,-4.08964 -71.93472,-5.56859 -73.79136,-3.71195 -1.23109,1.2311 -1.21038,4.88642 0.0767,13.52213 3.32561,22.31429 20.08087,76.76265 23.62195,76.76265 0.85825,0 4.7462,-2.30408 8.63985,-5.12018 10.58998,-7.65926 15.11512,-8.62922 40.2577,-8.62922 20.2459,0 25.4687,0.58292 46.74913,5.21767 13.17629,2.86973 27.39424,5.68217 31.59544,6.24988 4.20121,0.56771 13.48205,2.2921 20.6241,3.83199 7.14205,1.5399 22.95385,4.31063 35.13735,6.15719 12.18349,1.84656 35.55747,5.99229 51.94217,9.21271 29.1814,5.73564 42.21332,7.28034 96.24578,11.40819 35.9826,2.74892 90.57173,1.84056 103.12048,-1.71592 z m 68.21088,-113.52039 c 7.58031,-2.38995 9.63929,-8.12309 12.72593,-35.43477 1.36909,-12.11421 3.13558,-24.43197 3.92553,-27.37281 2.16637,-8.06495 1.86189,-24.42677 -0.45632,-24.52102 -1.0503,-0.0427 -27.00228,-0.37538 -57.67108,-0.73928 -30.6688,-0.3639 -64.01108,-1.45567 -74.09398,-2.42616 -12.33392,-1.18715 -40.57734,-1.50356 -86.31566,-0.96698 -85.79289,1.00646 -197.84304,-2.01857 -274.98795,-7.42388 -37.65247,-2.6382 -69.37168,-3.51576 -70.9325,-1.96245 -0.50671,0.50428 0.73762,8.06644 2.76519,16.80482 2.02756,8.73838 4.80964,22.41892 6.1824,30.40121 1.37275,7.98229 3.20194,18.63807 4.06485,23.67952 2.27742,13.3056 2.80276,14.54336 6.82084,16.07103 2.0003,0.76052 22.04997,2.77213 44.55481,4.47025 22.50485,1.69812 48.82381,3.80389 58.48658,4.67948 9.66277,0.8756 39.22397,2.29671 65.69156,3.15803 26.46759,0.86132 51.56025,2.1083 55.76145,2.77107 12.61501,1.9901 296.92829,0.87706 303.47835,-1.18806 z"
     id="path16"
     transform="scale(0.75)" />
  <path
     style="fill:none;stroke-width:1.52771"
     d="m 326.01035,611.16818 c -5.02498,-2.88214 -8.4877,-6.14421 -9.74548,-9.18076 -4.34749,-10.49578 1.83122,-24.47788 13.20102,-29.8732 4.9172,-2.33336 6.73586,-2.475 12.38362,-0.96446 12.86528,3.44094 18.69025,10.62609 18.69025,23.05458 0,18.96348 -16.72081,27.17819 -34.52941,16.96384 z"
     id="path18"
     transform="scale(0.75)" />
  <path
     style="font-variation-settings:normal;opacity:1;vector-effect:none;fill:#ff6f00;fill-opacity:1;stroke-width:2.3339;stroke-linecap:butt;stroke-linejoin:miter;stroke-miterlimit:4;stroke-dasharray:none;stroke-dashoffset:0;stroke-opacity:1;stop-color:#000000;stop-opacity:1"
     d="m 326.01035,611.16818 c -5.02498,-2.88214 -8.4877,-6.14421 -9.74548,-9.18076 -4.34749,-10.49578 1.83122,-24.47788 13.20102,-29.8732 4.9172,-2.33336 6.73586,-2.475 12.38362,-0.96446 12.86528,3.44094 18.69025,10.62609 18.69025,23.05458 0,18.96348 -16.72081,27.17819 -34.52941,16.96384 z"
     id="path843"
     transform="scale(0.75)" />
  <path
     style="font-variation-settings:normal;opacity:1;vector-effect:none;fill:#ff0000;fill-opacity:1;stroke-width:2.3339;stroke-linecap:butt;stroke-linejoin:miter;stroke-miterlimit:4;stroke-dasharray:none;stroke-dashoffset:0;stroke-opacity:1;stop-color:#000000;stop-opacity:1"
     d="m 916.62651,1190.039 c -15.54446,-0.6342 -60.23,-1.9439 -99.30121,-2.9104 -39.0712,-0.9665 -87.1941,-2.4107 -106.93976,-3.2093 -19.74566,-0.7986 -54.11915,-2.1888 -76.38554,-3.0892 -22.26639,-0.9005 -82.67681,-1.4204 -134.24538,-1.1553 l -93.76103,0.4818 0.95107,-14.5132 c 0.52309,-7.9823 1.60819,-28.6064 2.41134,-45.8314 0.80315,-17.2249 2.48974,-37.849 3.748,-45.8313 8.41901,-53.41 10.83753,-66.0018 16.87205,-87.84335 3.71435,-13.44386 7.22337,-27.53699 7.7978,-31.31807 1.19029,-7.83487 10.98502,-33.33053 17.60715,-45.83133 2.44808,-4.62132 5.51528,-12.50793 6.81598,-17.52581 1.3007,-5.01787 4.39633,-12.87398 6.87915,-17.45805 2.48283,-4.58405 4.51423,-9.21214 4.51423,-10.28467 0,-1.07251 -4.2855,-3.87218 -9.52335,-6.22148 -22.12879,-9.92526 -43.32011,-20.78134 -54.32673,-27.831 -16.77649,-10.74518 -19.88166,-11.2578 -56.83908,-9.38347 -17.22493,0.87357 -55.72325,2.28894 -85.5518,3.14525 -142.21929,4.08281 -164.12394,4.80496 -183.69858,6.05618 -11.548554,0.73821 -35.094398,1.83859 -52.324096,2.4453 L 0,833.03332 V 682.87051 532.7077 l 190.97238,0.82544 c 173.28703,0.74897 191.32528,1.05665 194.78313,3.32232 2.09591,1.37329 3.81076,3.79977 3.81076,5.39217 0,9.98441 4.10011,9.90549 15.18297,-0.29221 12.31356,-11.33011 52.09889,-39.88127 66.14618,-47.46849 6.50007,-3.51082 11.82796,-7.15988 11.83976,-8.10903 0.0122,-0.94914 -2.28576,-6.10516 -5.1057,-11.45783 -2.81993,-5.35266 -11.74579,-22.36632 -19.83524,-37.8081 -8.08944,-15.44179 -15.32741,-28.84746 -16.08439,-29.79036 -0.75697,-0.94292 -1.88958,-4.11044 -2.51692,-7.03896 -0.62734,-2.92853 -2.01537,-6.70961 -3.08451,-8.40241 -2.88899,-4.57424 -20.85706,-54.849 -28.67298,-80.22723 -12.93462,-41.99856 -33.6398,-149.09302 -30.92006,-159.92936 0.68593,-2.73291 2.00813,-3.57284 5.82336,-3.69927 10.98334,-0.36398 29.46641,0.39944 59.93355,2.4755 85.89994,5.85329 186.22596,8.78844 279.57108,8.17916 76.6462,-0.50028 208.60007,2.14008 226.86506,4.53951 7.19389,0.94504 8.33881,1.53654 7.96023,4.1125 -0.24319,1.65479 -2.11962,15.03943 -4.16984,29.74365 -3.79827,27.24148 -13.37865,74.35142 -19.88345,97.77349 -14.7254,53.02246 -50.30531,140.10335 -67.72022,165.74349 -7.33425,10.79826 -15.30334,26.60321 -16.43929,32.60364 -0.84812,4.48009 -0.22801,5.85644 5.16229,11.45783 8.16678,8.48661 9.53848,11.54475 9.53848,21.26552 0,10.64187 -3.73249,23.0342 -9.43345,31.32026 -5.49328,7.98422 -17.6019,17.81397 -24.91825,20.22857 -2.95283,0.97453 -5.36879,2.32573 -5.36879,3.00269 0,0.67694 6.70284,3.85782 14.89519,7.06861 8.19234,3.21077 16.72152,7.15398 18.95374,8.76266 14.5418,10.47979 10.47476,35.32281 -8.78877,53.68509 -4.54043,4.328 -8.25534,8.52345 -8.25534,9.32319 0,0.79974 1.30627,2.26986 2.90281,3.26692 4.84742,3.02726 21.54405,29.25004 21.50702,33.77767 -0.0412,5.04542 -4.39304,14.85199 -10.58331,23.84924 -5.6375,8.19384 -5.80788,10.55659 -0.92177,12.78285 2.05616,0.93685 4.89544,3.46911 6.3095,5.62723 3.68515,5.62427 2.20832,23.02693 -3.01458,35.52346 -2.18788,5.23481 -3.97798,11.37409 -3.97798,13.64283 0,3.6687 16.14404,35.36171 32.24196,63.29549 5.89479,10.22888 9.97265,19.16226 24.34353,53.32939 18.28692,43.47757 38.27544,113.15978 48.86244,170.33978 2.48917,13.4438 5.85668,29.0827 7.48337,34.7529 3.44052,11.9928 6.994,45.9525 6.994,66.8398 v 14.5133 l -13.7494,0.1707 c -7.56216,0.094 -26.46759,-0.3482 -42.01204,-0.9823 z m 49.96575,-8.6251 c 1.83619,-4.785 -5.35738,-72.5003 -7.98056,-75.1235 -1.37971,-1.3797 -52.90238,-2.8964 -162.67435,-4.7888 -52.51506,-0.9053 -126.07434,-2.2821 -163.46506,-3.0594 -95.30366,-1.9813 -213.36002,-2.5524 -214.88814,-1.0395 -0.70562,0.6987 -1.49884,17.6037 -1.76271,37.5667 l -0.47976,36.2965 26.45085,1.0033 c 14.54796,0.5519 53.6059,1.0242 86.79542,1.0496 33.18952,0.025 74.43771,0.6966 91.66265,1.4915 112.23765,5.1795 227.08634,8.6165 299.09734,8.9508 42.00226,0.195 46.35171,-0.021 47.24432,-2.3472 z M 706.92482,996.99177 c 62.57314,-19.27034 72.35144,-20.96339 126.44145,-21.89268 27.18491,-0.46705 48.62252,-0.091 58.81686,1.03152 35.98858,3.9631 36.66506,3.96415 36.66506,0.0571 0,-4.53866 -10.91532,-36.28461 -19.16595,-55.74192 -3.56293,-8.40241 -8.95685,-21.70272 -11.98647,-29.55626 -3.02962,-7.85355 -9.32007,-20.75574 -13.97878,-28.67157 -4.65873,-7.91582 -9.86286,-17.64575 -11.56477,-21.62204 -4.18547,-9.77885 -20.98537,-39.25038 -24.56362,-43.09118 -1.58594,-1.70234 -4.51448,-3.09514 -6.50785,-3.09514 -1.99339,0 -13.22178,4.13261 -24.95197,9.18357 -23.77336,10.2367 -34.8461,12.44499 -53.44714,10.65922 -10.39585,-0.99802 -11.44823,-1.44549 -16.50322,-7.01705 -7.58454,-8.35957 -11.39621,-17.36969 -12.39402,-29.29715 -0.71606,-8.55987 -0.19924,-12.15853 3.11363,-21.67973 2.18474,-6.27891 3.47226,-11.90234 2.86119,-12.49651 -0.61107,-0.59417 -8.1179,-2.8491 -16.68185,-5.01097 -8.56397,-2.16186 -17.39525,-4.6243 -19.6251,-5.47209 -5.90524,-2.24517 -16.96848,-11.72626 -20.66811,-17.7124 -4.66822,-7.55334 -8.07804,-6.74295 -11.94772,2.83949 -4.65214,11.52 -10.52914,35.76162 -12.42,51.23029 -1.70842,13.97637 -6.18061,28.27547 -10.25656,32.79381 -2.82179,3.12805 -7.01614,3.4746 -9.24528,0.76386 -4.33725,-5.27427 -9.00621,-32.4548 -12.53076,-72.9482 -2.22175,-25.52555 -5.57905,-44.90168 -9.19743,-53.08165 -2.41749,-5.46516 -3.62235,-6.62908 -6.44723,-6.22822 -2.682,0.3806 -5.39376,4.15045 -11.8934,16.53397 -10.09764,19.23868 -17.87212,30.81098 -32.62437,48.56133 -30.31265,36.47309 -61.60821,82.60195 -80.54617,118.72301 -11.04555,21.06759 -33.73465,74.41287 -39.53269,92.94692 -6.06845,19.39841 -12.27267,41.95285 -12.27267,44.61525 0,3.0672 5.13334,2.78254 11.90062,-0.65994 13.5687,-6.90232 25.75643,-9.33856 46.69525,-9.33407 11.04468,0.003 26.26847,0.75877 33.83064,1.68088 13.01667,1.58725 19.59941,3.11942 54.28237,12.63457 30.9154,8.48161 40.5236,9.88981 68.29305,10.00991 l 26.32963,0.1137 z M 481.52378,848.26145 c 1.26288,-1.47043 2.76934,-3.99789 3.3477,-5.61659 0.57838,-1.6187 5.41754,-9.5246 10.75371,-17.56867 5.33619,-8.04407 12.18599,-19.20599 15.22179,-24.80425 3.03581,-5.59828 8.85471,-14.19166 12.93088,-19.09639 4.07618,-4.90474 9.33429,-12.01133 11.68468,-15.79242 2.3504,-3.78108 8.55196,-12.03072 13.78125,-18.33253 25.56696,-30.81066 42.1656,-56.09213 48.2047,-73.4208 4.82979,-13.85865 4.02919,-15.18643 -9.15667,-15.18643 -20.08843,0 -40.8473,5.8351 -69.24798,19.46486 -19.29001,9.25747 -26.50328,11.26228 -20.91918,5.81414 3.32349,-3.24255 23.31402,-13.57519 39.62956,-20.4836 13.58758,-5.75332 32.87855,-10.54457 54.23373,-13.46989 7.59187,-1.03996 9.24354,-1.79583 9.61615,-4.40069 0.61041,-4.26739 -9.51284,-15.50132 -23.95782,-26.58634 -6.39618,-4.9084 -15.04091,-12.42941 -19.21054,-16.71334 -4.16961,-4.28395 -8.48909,-7.78899 -9.59884,-7.78899 -1.10974,0 -8.86805,6.48414 -17.24067,14.40918 -14.416,13.64538 -20.31391,17.68116 -22.55875,15.43633 -0.54323,-0.54322 4.14901,-5.95931 10.42718,-12.03573 6.27817,-6.07643 18.90319,-19.14624 28.05559,-29.04403 14.55083,-15.73588 19.44337,-19.82857 38.95662,-32.58789 12.27375,-8.02556 24.89391,-17.05634 28.04482,-20.06843 5.25005,-5.01875 5.72891,-6.1728 5.72891,-13.80661 0,-14.68539 -8.59265,-22.09103 -35.53755,-30.62825 -14.05116,-4.45197 -16.30713,-4.72517 -39.01758,-4.72517 -29.2701,0 -35.77343,1.46099 -60.64728,13.62456 -29.6266,14.48771 -55.36207,32.54194 -82.45923,57.84771 l -11.56637,10.80171 0.41763,121.46448 0.41761,121.46447 4.58313,4.84329 c 9.53124,10.07224 31.77757,23.27959 55.61778,33.01953 17.48554,7.14371 25.77774,8.26007 29.46504,3.96678 z M 359.01205,812.6355 c 12.18349,-0.96915 22.83928,-2.40698 23.67952,-3.19519 1.76446,-1.6552 3.08139,-227.85686 1.47279,-252.97164 l -1.00296,-15.65903 h -45.68432 -45.68431 l -0.0293,11.0759 c -0.0162,6.09175 -1.03608,41.32458 -2.26656,78.29518 -1.23049,36.97061 -2.2485,93.96632 -2.26225,126.65715 l -0.025,59.43785 24.8253,-0.93906 c 13.65392,-0.51648 34.79361,-1.73199 46.97711,-2.70116 z m 440.1131,-9.65111 c 18.58491,-5.77434 41.62141,-18.32022 46.00424,-25.05431 5.86799,-9.01596 7.84249,-15.28914 7.84249,-24.91617 0,-14.40185 -7.50107,-19.4211 -26.34749,-17.63005 -58.87509,5.5951 -65.46474,6.55789 -70.37727,10.28264 -12.96847,9.83286 -16.30852,17.1555 -14.73786,32.31093 1.08849,10.50303 3.63358,17.01039 9.26492,23.68884 l 4.18659,4.96506 16.28708,-0.0229 c 12.76624,-0.018 18.7926,-0.80138 27.8773,-3.62401 z m -3.40385,-71.28345 c 28.29206,-3.02853 41.33634,-6.01935 46.6672,-10.6999 5.83863,-5.12639 13.12957,-18.91444 13.12957,-24.82961 0,-6.15987 -5.20816,-15.41373 -13.53999,-24.05786 -6.896,-7.15448 -7.71109,-7.55935 -15.21823,-7.55935 -4.36259,0 -15.08783,1.69082 -23.83385,3.75737 l -15.90188,3.75738 -27.24338,-2.16691 c -14.98386,-1.19181 -34.29766,-2.98356 -42.91954,-3.98169 -14.2672,-1.65165 -16.23218,-1.56402 -21.8627,0.97499 -3.40261,1.53435 -6.83226,3.99624 -7.62144,5.47085 -0.78919,1.47461 -1.43489,9.04022 -1.43489,16.81246 0,23.65121 7.19223,32.55462 33.39571,41.34118 12.93573,4.33762 13.68357,4.40939 37.42679,3.59193 13.32502,-0.45877 30.8555,-1.54366 38.95663,-2.41084 z m 11.33196,-71.54121 c 6.53389,-1.56362 13.12241,-3.96751 14.6412,-5.34198 1.51878,-1.37448 6.20055,-3.52037 10.40396,-4.76864 16.16743,-4.80122 26.47507,-17.09741 26.47507,-31.58263 0,-9.99667 -4.69896,-16.21882 -16.86655,-22.33385 -18.07273,-9.08277 -43.82607,-12.8095 -109.16959,-15.79781 -35.62518,-1.62921 -40.5868,-1.56059 -48.12289,0.66561 -11.34597,3.35164 -25.06344,12.21369 -29.15639,18.83624 -4.54918,7.3607 -5.82226,24.02912 -2.34839,30.74686 5.21481,10.08432 22.16762,18.4619 51.74753,25.57208 21.98926,5.28559 33.21109,6.45838 63.78134,6.66572 21.26702,0.14422 29.16463,-0.40012 38.61471,-2.6616 z m 13.11649,-88.8683 c 18.89384,-3.06578 28.67501,-10.80935 34.64319,-27.42637 3.27199,-9.11006 3.37612,-22.39908 0.22325,-28.48779 -5.23089,-10.10165 -23.71758,-18.27526 -46.62569,-20.61485 -20.8139,-2.12571 -71.45141,-0.77816 -90.00551,2.39519 -34.04588,5.82293 -47.75498,17.56875 -45.79054,39.23288 1.81047,19.96625 12.91108,28.52621 44.40376,34.24087 13.51619,2.45265 89.12258,2.93645 103.15154,0.66007 z M 863.92048,370.6527 c 6.72193,-1.30228 17.80662,-2.39177 24.63266,-2.42108 l 12.41095,-0.0533 7.83773,-21.00603 c 4.31075,-11.55331 9.86968,-27.88072 12.3532,-36.28313 4.53028,-15.32721 9.81441,-41.92776 8.57503,-43.16713 -0.36412,-0.36411 -68.94287,-1.24278 -152.39724,-1.95259 -192.87241,-1.64045 -235.84907,-3.02922 -307.08047,-9.92312 -12.8683,-1.24541 -33.5371,-2.71139 -45.93065,-3.25772 l -22.53374,-0.99334 v 7.05508 c 0,17.46906 19.32981,83.78979 24.71274,84.78963 1.40852,0.26162 6.44529,-2.10339 11.19284,-5.25558 8.02476,-5.32815 9.67135,-5.80173 23.41015,-6.73291 18.78611,-1.27329 42.91477,0.48766 60.93308,4.44698 14.28259,3.13845 47.1736,9.17073 125.71264,23.05594 66.59957,11.77439 106.18666,15.30509 163.46506,14.57919 28.39568,-0.35987 44.13373,-1.22009 52.70602,-2.88087 z m 67.73135,-113.86253 c 1.96123,-1.04962 4.52025,-4.19253 5.68671,-6.98426 3.04277,-7.28237 8.89661,-51.04478 8.9949,-67.24446 l 0.0834,-13.7494 -48.88674,-0.95025 c -26.8877,-0.52264 -108.35288,-1.67976 -181.03372,-2.57138 -131.47825,-1.61292 -178.31558,-2.96507 -248.25302,-7.16683 -63.58847,-3.82032 -85.74071,-4.46333 -86.93955,-2.52356 -0.59493,0.96264 1.33629,13.95372 4.29163,28.86908 2.95533,14.91536 6.12996,31.5874 7.05473,37.04896 2.6798,15.8266 4.43679,21.14465 7.2844,22.04845 6.72109,2.13319 116.97136,10.17193 169.89052,12.38732 32.34321,1.35401 59.15454,2.83458 59.58072,3.29015 0.4262,0.45557 67.80358,0.51922 149.72752,0.14145 115.10282,-0.53078 149.76298,-1.12056 152.51849,-2.59527 z"
     id="path845"
     transform="scale(0.75)" />
  <path
     style="font-variation-settings:normal;opacity:1;vector-effect:none;fill:#ff6f00;fill-opacity:1;stroke-width:2.3339;stroke-linecap:butt;stroke-linejoin:miter;stroke-miterlimit:4;stroke-dasharray:none;stroke-dashoffset:0;stroke-opacity:1;stop-color:#000000;stop-opacity:1"
     d="m 915.0988,1190.0255 c -16.3847,-0.6425 -61.07025,-1.9548 -99.30121,-2.9162 -66.43251,-1.6705 -87.51375,-2.3964 -181.03373,-6.2342 -22.99378,-0.9436 -82.74793,-1.4771 -135.02216,-1.2056 l -93.77395,0.4871 0.9939,-15.2771 c 0.54665,-8.4024 1.64347,-29.0265 2.43739,-45.8313 0.79392,-16.8048 1.86651,-33.3041 2.38353,-36.6651 9.50609,-61.7954 13.11783,-80.348 19.82483,-101.83496 2.00865,-6.43502 4.45866,-16.40333 5.44444,-22.1518 1.87148,-10.91315 10.32497,-33.79618 18.37959,-49.75228 2.58945,-5.12968 5.66462,-12.99906 6.83372,-17.48749 1.16908,-4.48844 4.2192,-12.3082 6.77806,-17.37722 2.55884,-5.06904 4.21943,-9.91706 3.6902,-10.77336 -0.52923,-0.85631 -12.06803,-6.88458 -25.6418,-13.39616 -13.57376,-6.51157 -28.59058,-14.34164 -33.37069,-17.40015 -20.19173,-12.91944 -19.08707,-12.63233 -47.07032,-12.23401 -13.86397,0.19735 -35.86301,1.05247 -48.88674,1.90027 -13.02374,0.84779 -58.74049,2.23348 -101.59278,3.07931 -42.85228,0.84584 -89.2565,2.23278 -103.12048,3.08212 -35.082262,2.14922 -88.730328,4.54637 -101.974696,4.55655 L 0,832.60241 V 682.65505 532.7077 l 190.97238,0.82544 c 173.28703,0.74897 191.32528,1.05665 194.78313,3.32232 2.09591,1.37329 3.81076,3.79977 3.81076,5.39217 0,4.48468 1.64733,7.72827 3.92497,7.72827 1.13871,0 6.12632,-3.60921 11.08358,-8.02048 12.73454,-11.33195 50.75617,-38.7249 64.83052,-46.70762 6.52077,-3.69846 12.23207,-7.33306 12.69179,-8.07688 0.95317,-1.54227 -2.04796,-7.72632 -22.90152,-47.1902 -8.21402,-15.54445 -15.83148,-29.98132 -16.92767,-32.08192 -5.2031,-9.97052 -25.5701,-66.23915 -34.83714,-96.24579 -12.90678,-41.79212 -33.66094,-148.99031 -30.9424,-159.82187 0.71488,-2.84825 1.9914,-3.67888 5.85034,-3.80676 10.71298,-0.35502 29.2945,0.4029 60.6974,2.4758 94.4256,6.23302 190.7063,8.99073 273.46025,7.83255 40.24164,-0.56321 84.6279,-0.31758 105.41204,0.58333 19.74567,0.8559 57.75705,2.12074 84.46975,2.81076 26.71268,0.69002 49.21365,1.89971 50.00213,2.68819 0.88858,0.88858 0.89414,3.44894 0.0153,6.7346 -0.78113,2.91555 -2.86152,16.30051 -4.62375,29.74437 -4.89202,37.32046 -21.0226,106.96072 -29.54726,127.56385 -1.21679,2.94084 -5.64816,15.3153 -9.84748,27.4988 -11.90649,34.5443 -35.35751,86.2503 -47.80913,105.41204 -8.05009,12.38824 -16.68844,30.20108 -16.68844,34.41264 0,1.74943 2.46479,5.5499 5.47733,8.4455 8.79943,8.45792 10.30889,12.60917 9.40104,25.85431 -0.51222,7.47321 -2.04306,14.26798 -4.31954,19.17256 -4.617,9.94715 -18.96372,24.03868 -27.97956,27.48185 -3.86245,1.4751 -7.02265,3.19577 -7.02265,3.82372 0,0.62797 6.70284,3.76326 14.89519,6.96731 18.30813,7.16038 20.85676,8.73415 24.99936,15.43702 7.07943,11.45474 0.45697,32.44702 -14.83439,47.02297 -4.54043,4.328 -8.25534,8.52345 -8.25534,9.32319 0,0.79974 1.4029,2.3302 3.11754,3.40102 4.84126,3.02341 21.32796,29.10289 21.31091,33.71065 -0.018,4.86583 -6.04179,18.20495 -11.38418,25.20917 -2.1329,2.79638 -3.878,5.64064 -3.878,6.32058 0,0.67994 2.83952,3.8577 6.31007,7.06168 l 6.31007,5.82542 -0.79317,11.89051 c -0.53586,8.03307 -2.13481,15.09508 -4.92873,21.76855 -2.91367,6.95948 -3.88717,11.40859 -3.29489,15.05834 0.46235,2.84916 9.73984,21.4343 20.61666,41.30027 26.66578,48.70379 42.63404,86.67406 58.44516,138.97436 9.50187,31.43041 21.57847,80.47841 25.83201,104.91431 1.75514,10.0829 4.82871,24.5197 6.8302,32.0819 3.9905,15.0773 8.89578,60.2321 8.13202,74.8578 l -0.47868,9.1663 -13.7494,0.1716 c -7.56216,0.094 -27.15506,-0.3542 -43.53975,-0.9967 z m 51.67142,-12.8605 c 0.52133,-6.3932 -3.32005,-45.5458 -6.02306,-61.3888 -1.49705,-8.7747 -1.90469,-9.4436 -6.28894,-10.3205 -2.57847,-0.5157 -44.28466,-1.6115 -92.68041,-2.4352 -48.39574,-0.8237 -117.20974,-2.2165 -152.91998,-3.0951 -97.93786,-2.4097 -268.387,-4.5481 -280.63993,-3.5209 l -10.82046,0.9072 -0.91323,5.5212 c -1.32923,8.0364 -1.15374,68.9072 0.19892,68.9993 0.63018,0.043 49.26868,0.7051 108.08554,1.4717 58.81687,0.7666 117.25181,2.0659 129.85543,2.8874 22.73519,1.4818 92.77632,3.9273 176.4506,6.1606 23.94687,0.6391 64.16385,1.0941 89.37108,1.0111 l 45.83133,-0.1509 z M 706.92482,996.95901 c 62.62099,-19.34971 71.65761,-20.9119 126.44145,-21.85836 27.43307,-0.47394 48.80344,-0.0949 59.58072,1.05697 36.38156,3.88823 35.9012,3.88303 35.9012,0.38818 0,-4.2091 -14.18281,-45.05048 -21.30823,-61.36006 -3.14114,-7.18987 -7.5397,-17.88478 -9.77457,-23.76646 -2.23486,-5.88169 -9.55655,-20.66229 -16.27044,-32.84579 C 874.78107,846.39 869.2833,835.881 869.27767,835.22016 c -0.0188,-2.20938 -18.49982,-33.88746 -21.88121,-37.50627 -4.45169,-4.76424 -7.84679,-4.08757 -32.52225,6.48185 -22.38602,9.58879 -33.91904,11.81102 -52.19257,10.05669 -10.39585,-0.99802 -11.44823,-1.44549 -16.50322,-7.01705 -7.58958,-8.36512 -11.3983,-17.37546 -12.3841,-29.29715 -0.69969,-8.46163 -0.16767,-12.27511 3.03032,-21.72136 2.13346,-6.30181 3.41653,-11.88008 2.85127,-12.39617 -0.56523,-0.51609 -9.27736,-3.1169 -19.36025,-5.77959 -20.23199,-5.34288 -27.39728,-9.39811 -35.69258,-20.20042 -5.90659,-7.69168 -7.13803,-8.41782 -10.10283,-5.95724 -4.48044,3.71843 -13.41021,35.97798 -16.20832,58.55388 -2.64534,21.34339 -9.39403,35.70377 -16.16615,34.39958 -6.42611,-1.23756 -9.85524,-16.47727 -14.95822,-66.47723 -3.85005,-37.72358 -6.5951,-53.3629 -10.99309,-62.63101 -4.20373,-8.85866 -7.5966,-6.55629 -17.30244,11.74121 -10.27357,19.36778 -18.05311,30.95121 -32.61426,48.56133 -30.70274,37.13161 -60.53802,81.06055 -80.46953,118.4819 -9.57578,17.97852 -33.56066,74.41281 -39.48387,92.90204 -5.89239,18.39306 -12.45449,42.05091 -12.45449,44.90124 0,3.28786 4.66274,2.71729 14.46412,-1.76993 14.61162,-6.68942 22.96588,-8.19082 45.68439,-8.21025 25.77067,-0.022 47.2359,2.99943 71.59157,10.07733 18.88979,5.48949 45.75956,12.09346 53.87679,13.24176 2.52072,0.3566 16.08772,0.7514 30.14891,0.8772 l 25.56578,0.2289 z M 482.44575,846.16673 c 1.43135,-2.62252 6.11277,-10.01282 10.40319,-16.4229 4.29041,-6.41007 11.41035,-18.06625 15.82209,-25.90261 4.41174,-7.83638 11.27086,-18.15264 15.24249,-22.92504 3.97164,-4.7724 9.14736,-11.76649 11.5016,-15.54243 2.35425,-3.77592 7.38543,-10.53456 11.18042,-15.0192 28.57759,-33.7709 52.42535,-72.24622 52.84214,-85.25407 l 0.18883,-5.89325 -9.8346,-0.46226 c -18.96744,-0.89154 -41.5528,5.34728 -72.28024,19.96619 -17.9774,8.55294 -24.83354,10.32513 -19.38701,5.01121 3.32667,-3.24565 23.30768,-13.57125 39.78425,-20.55932 14.78125,-6.26904 28.54424,-9.76448 51.02362,-12.95867 10.45776,-1.48599 12.28661,-2.18727 12.67157,-4.85894 0.60618,-4.20707 -9.2355,-15.15844 -23.01546,-25.61056 -6.07423,-4.60732 -14.80167,-12.21958 -19.39428,-16.91615 -4.59262,-4.69656 -9.13898,-8.53921 -10.10302,-8.53921 -0.96403,0 -8.78849,6.50588 -17.3877,14.45752 -14.7458,13.63537 -20.48626,17.56788 -22.58335,15.47081 -0.49767,-0.49769 5.65244,-7.60703 13.66691,-15.79853 8.01448,-8.19151 20.67607,-21.32824 28.13688,-29.19274 10.50357,-11.07193 18.48897,-17.54724 35.38216,-28.6912 11.99939,-7.91566 24.54572,-16.85727 27.88073,-19.87025 5.59615,-5.05579 6.06363,-6.09454 6.06363,-13.47356 0,-15.47352 -9.96849,-23.69012 -38.91984,-32.07988 -11.65961,-3.37882 -16.28568,-3.87277 -36.2703,-3.87277 -28.10493,0 -35.34272,1.66554 -60.25838,13.86654 -30.11523,14.74717 -57.40792,34.06405 -83.4315,59.05012 l -10.34747,9.93494 0.41735,121.17568 0.41737,121.17565 4.58313,4.80954 c 14.04417,14.73798 62.92531,39.46129 78.36624,39.63643 4.09321,0.0464 5.52336,-0.83563 7.63855,-4.71109 z M 356.73878,812.72614 c 29.10807,-2.33495 26.07986,-0.0897 27.23842,-20.19623 1.29438,-22.46387 1.30023,-209.10218 0.008,-233.14789 l -0.99895,-18.57238 h -45.37766 -45.37765 l -1.06827,35.51928 c -0.58756,19.5356 -1.70237,55.11216 -2.47737,79.05903 -0.77499,23.94687 -1.42398,69.94345 -1.44219,102.21461 l -0.0331,58.67485 24.8436,-0.97979 c 13.66397,-0.5389 33.77246,-1.69605 44.68554,-2.57148 z m 439.96728,-9.14021 c 13.81518,-3.93603 36.87124,-15.08146 43.82071,-21.18318 6.98272,-6.1309 12.16944,-18.14589 12.2616,-28.40395 0.15644,-17.4094 -8.52244,-21.54039 -36.99078,-17.60696 -6.30181,0.8707 -21.2832,2.53513 -33.29198,3.6987 l -21.83415,2.1156 -8.12066,6.93767 c -9.69274,8.28077 -12.59678,16.01457 -11.02744,29.36725 1.21215,10.31351 3.72395,16.60064 9.25082,23.15521 l 4.18659,4.96506 h 15.52809 c 10.91782,0 18.70168,-0.90418 26.2172,-3.0454 z m -1.58915,-71.90777 c 8.43353,-0.83767 21.52092,-2.62558 29.08309,-3.97313 12.46131,-2.22054 14.26605,-2.9884 19.26422,-8.19635 6.26826,-6.53132 12.05385,-17.50964 12.05385,-22.87254 0,-5.88932 -5.94032,-16.42608 -13.82314,-24.51908 -6.73357,-6.91309 -7.9734,-7.56284 -14.43127,-7.56284 -3.88568,0 -14.53275,1.68578 -23.6602,3.74617 -18.29502,4.12986 -21.6584,4.06266 -78.91257,-1.57658 -22.35658,-2.20201 -25.08064,-2.206 -29.2637,-0.0429 -8.84349,4.57316 -9.48502,6.04159 -9.48502,21.71099 0,17.40043 1.79535,22.33547 11.1076,30.53243 6.17107,5.43199 19.54593,11.33798 33.95987,14.99578 4.18278,1.06147 45.3402,-0.37791 64.10727,-2.24198 z m 10.44897,-71.08922 c 6.04757,-1.34068 13.40171,-4.03759 16.34255,-5.99317 2.94085,-1.95556 8.11497,-4.2811 11.49806,-5.16785 13.83391,-3.62603 23.87911,-15.30231 24.82738,-28.85868 0.81541,-11.65719 -3.19226,-17.69085 -16.00684,-24.0988 -11.79289,-5.89706 -25.46744,-9.21298 -49.52392,-12.00905 -25.47704,-2.96116 -91.1822,-6.0396 -101.47072,-4.75413 -16.5046,2.06211 -35.71368,15.23289 -38.88926,26.66456 -4.04273,14.55334 -0.37042,26.91433 10.0739,33.90868 12.32586,8.25439 38.80245,16.50621 65.44284,20.39625 20.42644,2.98267 64.07802,2.93334 77.70601,-0.0878 z m 25.94267,-92.10097 c 16.34489,-6.46182 25.59283,-21.10112 25.48309,-40.33925 -0.0773,-13.55498 -3.15611,-17.85943 -18.27839,-25.55488 -12.28617,-6.25218 -21.00284,-7.70355 -51.94217,-8.64863 -44.50246,-1.35938 -79.03908,2.72517 -96.1866,11.37571 -14.85216,7.49258 -21.31854,22.00123 -16.98255,38.10385 3.33449,12.38335 12.10137,19.27411 30.7644,24.18076 17.45141,4.58812 24.34394,5.04037 71.71078,4.70534 44.53677,-0.315 46.98554,-0.48389 55.43144,-3.8229 z m 32.41193,-197.8775 c 6.72193,-1.27906 17.82419,-2.34954 24.67169,-2.37885 l 12.45,-0.0533 6.97883,-18.95033 c 11.74477,-31.89178 18.73316,-56.75242 21.33849,-75.9099 l 0.7465,-5.48915 -34.48543,-1.00362 c -18.96697,-0.55199 -65.1386,-1.02472 -102.6036,-1.0505 -87.12057,-0.0599 -219.44976,-2.41356 -252.97118,-4.49935 -14.28409,-0.88879 -41.78289,-2.99631 -61.10843,-4.68337 -19.32554,-1.68706 -44.59006,-3.50111 -56.14337,-4.03123 l -21.00603,-0.96385 v 7.12851 c 0,17.37593 19.71748,85.00942 24.78317,85.00942 0.82018,0 5.60419,-2.53866 10.63114,-5.64147 8.35225,-5.15531 10.41272,-5.72774 23.90979,-6.64256 19.65545,-1.33223 42.81345,0.52646 65.18434,5.23178 17.44972,3.67023 36.99223,7.2379 126.03614,23.00899 62.69791,11.10481 103.24105,14.61181 159.64578,13.80941 27.00633,-0.38419 43.63252,-1.30945 51.94217,-2.89062 z m 32.55309,-112.19786 c 35.32465,-0.98541 35.63066,-1.02272 38.38739,-4.67997 1.52838,-2.02766 3.51312,-7.18368 4.41053,-11.45784 3.2129,-15.30214 8.0827,-56.92487 7.61846,-65.11574 l -0.47308,-8.34701 -51.94217,-0.96552 c -28.56819,-0.53103 -110.72084,-1.70736 -182.56145,-2.61406 -130.17786,-1.64297 -173.43253,-2.90588 -244.43373,-7.13678 -64.54739,-3.84633 -84.97386,-4.44026 -86.1696,-2.50552 -0.59349,0.96027 1.34264,13.95261 4.30249,28.87187 2.95985,14.91925 6.51314,33.52019 7.8962,41.33543 1.99741,11.28667 3.20363,14.66094 5.86408,16.40414 5.50643,3.60794 100.70876,10.97775 188.03213,14.55594 22.68651,0.92961 41.53464,1.9744 41.88474,2.32175 1.00768,0.99976 227.72553,0.43405 267.18401,-0.66669 z"
     id="path849"
     transform="scale(0.75)"
     inkscape:export-xdpi="96"
     inkscape:export-ydpi="96" />
</svg>
